<svg xmlns="http://www.w3.org/2000/svg" version="1.1" xmlns:xlink="http://www.w3.org/1999/xlink" xmlns:svgjs="http://svgjs.com/svgjs" width="1440" height="560" preserveAspectRatio="none" viewBox="0 0 1440 560"><g mask="url(&quot;#SvgjsMask1002&quot;)" fill="none"><circle r="5.34" cx="1022.46" cy="12.26" filter="url(#SvgjsFilter1003)" fill="rgba(51, 121, 194, 0.58)"></circle><circle r="5.145" cx="414.23499999999996" cy="322.705" filter="url(#SvgjsFilter1003)" fill="rgba(51, 121, 194, 0.58)"></circle><circle r="5.545" cx="492.52500000000003" cy="487.055" filter="url(#SvgjsFilter1003)" fill="rgba(51, 121, 194, 0.58)"></circle><circle r="4.74" cx="1311.88" cy="26.14" filter="url(#SvgjsFilter1003)" fill="rgba(51, 121, 194, 0.58)"></circle><circle r="7.84" cx="1200.1699999999998" cy="463.32" filter="url(#SvgjsFilter1003)" fill="rgba(51, 121, 194, 0.58)"></circle><circle r="4.79" cx="458.89000000000004" cy="123.61" filter="url(#SvgjsFilter1003)" fill="rgba(51, 121, 194, 0.58)"></circle><circle r="6.345" cx="499.915" cy="384.165" filter="url(#SvgjsFilter1003)" fill="rgba(51, 121, 194, 0.58)"></circle><circle r="9.23" cx="1184.33" cy="528.27" filter="url(#SvgjsFilter1003)" fill="rgba(51, 121, 194, 0.58)"></circle><circle r="7.625" cx="491.915" cy="25.365" filter="url(#SvgjsFilter1003)" fill="rgba(51, 121, 194, 0.58)"></circle><circle r="9.14" cx="530.29" cy="162.74" filter="url(#SvgjsFilter1003)" fill="rgba(51, 121, 194, 0.58)"></circle><circle r="6.505" cx="1082.1350000000002" cy="420.375" filter="url(#SvgjsFilter1003)" fill="rgba(51, 121, 194, 0.58)"></circle><circle r="6.465" cx="259.425" cy="186.995" filter="url(#SvgjsFilter1003)" fill="rgba(51, 121, 194, 0.58)"></circle><circle r="9.19" cx="1111.19" cy="254.85" filter="url(#SvgjsFilter1003)" fill="rgba(51, 121, 194, 0.58)"></circle><circle r="4.675" cx="511.375" cy="298.415" filter="url(#SvgjsFilter1003)" fill="rgba(51, 121, 194, 0.58)"></circle><circle r="5.27" cx="827.28" cy="541.59" filter="url(#SvgjsFilter1003)" fill="rgba(51, 121, 194, 0.58)"></circle><circle r="6.225" cx="1383.115" cy="438.495" filter="url(#SvgjsFilter1003)" fill="rgba(51, 121, 194, 0.58)"></circle><circle r="5.78" cx="1278.8" cy="92.61" filter="url(#SvgjsFilter1003)" fill="rgba(51, 121, 194, 0.58)"></circle><circle r="8.49" cx="686.26" cy="290.62" filter="url(#SvgjsFilter1003)" fill="rgba(51, 121, 194, 0.58)"></circle><circle r="6.095" cx="248.385" cy="510.095" filter="url(#SvgjsFilter1003)" fill="rgba(51, 121, 194, 0.58)"></circle><circle r="8.685" cx="639.2049999999999" cy="151.315" filter="url(#SvgjsFilter1003)" fill="rgba(51, 121, 194, 0.58)"></circle><path d="M801.4 308.8L748.5 306.6 738.3 296.1 747.9 264.9 762.4 261.3 807.2 289.9C807.8 290.1 807.8 290.1 808.4 290.3 809.7 290.6 811.1 290.4 812.2 288.8 812.8 286.9 812.6 285.5 810.9 284.3L771.7 259.5 794.1 254.3 811.5 265.1C811.5 265.1 812.1 265.3 812.1 265.3 813.3 265.7 814.8 265.4 815.9 263.8 816.9 262.7 816.3 260.5 814.6 259.3L803.5 251.9 820 248.3C821.5 248.1 822.6 246.4 822.6 244.4S820.1 241.6 818.1 241.7L802.2 245.5 809 234.2C810.2 232.5 809.5 230.3 807.9 229.1 806.6 228.8 804.6 228.8 803.4 230.4L792.7 247.9 769.7 252.9 794.6 213.6C795.7 212 795.1 209.8 794.1 208.8 792.2 208.2 790.2 208.3 789 209.9L761.1 254.9 746 258.3 724.4 234.9 728.9 220.2 775.5 195C777.1 194.2 777.7 192.4 776.8 190.8S774.2 188.6 772.6 189.4L731.6 211.6 738.5 189 756.2 179.7C757.8 178.8 758.3 177 757.7 174.8S755 172.6 753.4 173.5L741.2 180.4 746.3 163.9C746.9 162.1 745.4 160.3 743.6 159.7 741.7 159.2 740.1 160 739.6 161.8L734.5 178.3 728.1 166.3C727.5 164.1 725.6 163.6 723.8 165 722.2 165.9 721.7 167.7 722.5 169.3L731.8 186.9 724.8 209.5 703.5 168.1C702.6 166.5 700.2 165.8 698.6 166.6S696.4 169.3 697.2 170.9L722.2 218.1 717.7 232.8 686 239.8 676.1 228.6 678.3 175.8C678.3 173.7 676.6 172.6 674.8 172 672.8 172 671.6 173.7 671 175.5L669.4 221.9 653.9 205.1 654.8 184.6C654.8 182.6 653.2 181.4 651.3 180.8 649.9 181.1 648.1 182.5 648.2 184.5L647.4 197.7 635.8 185.4C634.8 184.4 632.8 184.5 631.2 185.3 630 187 630 189 631.1 190L642.7 202.3 628.7 202C627.3 202.2 625.5 203.7 625.7 205.1 625.2 206.9 626.2 207.9 628 208.5 628 208.5 628.7 208.7 628.7 208.7L649.1 209.6 664.7 226.5 618.3 224.9C616.3 224.9 614.7 225.8 614.7 227.8 614.8 229.8 615.8 230.8 617 231.2 617.6 231.4 617.6 231.4 617.6 231.4L671.3 233.2 681.3 244.3 671.7 275.5 657.4 278.5 611.8 250.3C610.7 249.3 608.5 250 607.5 251 606.4 252.7 607 254.9 608.7 256.1L647.9 280.9 625.5 286.1 608.1 275.3C606.4 274.1 604.4 274.2 603.9 276 602.7 277.7 603.3 279.9 604.4 280.9L616.3 287.9 599.7 291.5C598.1 292.3 597 294 597 296 597.4 296.8 598.5 297.8 599.7 298.2 600.3 298.4 600.3 298.4 601.1 297.9L617.6 294.3 610.6 306.2C609.4 307.9 610.3 309.5 611.3 310.5 611.9 310.7 611.9 310.7 612.5 310.8 613.8 311.2 615.2 311 616.2 310L626.9 292.5 649.3 287.3 624.4 326.6C623.9 328.4 623.9 330.4 625.7 331 626.2 331.8 626.2 331.8 626.8 332 628 332.4 629.6 331.5 630.6 330.5L658.7 284.9 673 282 695.2 305.5 690.9 319.6 643.7 344.6C642.1 345.4 641.3 347.9 642.1 349.5S645.4 351.8 647 351L688 328.8 681.2 350.8 663.4 360.7C661.8 361.6 661.3 363.4 662.1 365 663 366.6 664.8 367.2 666.4 366.3L678.4 360 673.3 376.5C672.9 377.7 673.6 379.9 675.4 380.5 677.3 381.1 679.7 379.8 680 378.6L685.1 362.1 691.5 374.1C691.9 374.9 692.3 375.7 692.9 375.8 694.2 376.2 695 375.8 695.8 375.4 697.4 374.5 697.9 372.7 697.1 371.1L688 352.9 694.8 330.9 716.1 372.3C716.6 373.1 717.2 373.3 718.4 373.7 719 373.8 719.6 374 720.4 373.6 722 372.8 722.8 370.3 721.9 368.7L697.6 321.7 701.9 307.6 733 300.5 743.7 311.1 741.3 364.6C741.5 366.1 742.4 367.7 743.6 368 744.2 368.2 744.2 368.2 744.4 367.6 746.2 368.2 748 366.7 748 364.7L749.5 318.3 765.7 335.3 764.8 355.8C765 357.2 766 358.2 767.3 358.6 767.3 358.6 767.9 358.8 767.9 358.8 769.7 359.3 771.5 357.9 771.4 355.9L771.7 341.9 783.3 354.2C783.8 355 784.4 355.2 785 355.4 786.2 355.7 787.6 355.5 787.8 354.9 789.6 353.4 789.6 351.4 788.7 349.8L777.1 337.5 790.3 338.2C792.3 338.2 794.1 336.7 794 334.7 793.8 333.3 792.4 331.5 790.9 331.7L770.5 330.8 754.9 313.9 801.3 315.5C803.3 315.5 804.5 313.8 805.1 312 804.8 310.6 803.4 308.8 801.4 308.8ZM740.1 266.5L732.7 290.3 731.6 294 728 294.9 704.2 300.3 700 301 697.5 298.2 680.9 280.4 678.4 277.6 679.5 273.9 686.9 250.1 688 246.4 691.6 245.5 715.4 240.1 719 239.2 722.1 242.2 738.7 260 741.2 262.8 740.1 266.5Z" fill="rgba(51, 121, 194, 0.58)"></path><path d="M850.5 532.3L864.3 530.1 861.6 538.1C861.3 539 861.7 540.1 862.8 540.8 863.9 540.9 865.1 540.4 865.2 539.3L868.9 529.4 879.6 527.2 871.9 547.8C871.8 549 872.2 550.1 873 550.5 874.4 550.9 875.6 550.4 875.7 549.3L884.2 526.5 900.7 523.7 892.1 540.8 910.4 535.3 904.8 551 880.8 555.4C880.6 555.1 880.3 555.4 880 555.6 879.4 556.2 879 557 879.2 557.9 879.4 558.7 880.5 559.4 881.6 559.5L903.3 555.4 899.3 565.6 888.9 567.5C888.3 567.5 888 567.7 887.7 568 887.4 568.2 887 569 887.2 569.9 887.4 570.8 888.5 571.4 889.4 571.2L897.7 570 893.2 583.2C892.5 584.3 893.3 585.2 894.3 585.9 895.2 586.2 896.3 585.8 896.7 584.4L901.6 571.5 907 577.9C907.7 578.8 909.2 578.7 909.8 578.1 910.7 577.4 910.8 576.2 910 575.3L903.1 567.1 907.1 556.9 921 573.5C921.8 574.4 922.9 574.5 923.8 573.7 924.4 573.2 924.8 571.8 924.1 570.9L908.6 552.5 914.3 536.8 924.8 552.5 929.3 534.1 940.1 547 931.8 569.6C931.4 571 932.2 571.9 933 572.2 933.8 572.6 935 572.1 935.7 571.1L942.9 550.4 949.8 558.7 946.4 568.9C945.7 570 946.2 571.1 947.6 571.5 948.4 571.9 949.6 571.4 950 570L952.9 562.4 961.9 573.1C962.7 574 963.8 574.1 964.7 573.3S965.7 571.4 965 570.5L956 559.8 964.1 558.2C965.5 558.1 966.2 557 966 556.1 965.8 554.7 964.7 554 963.5 554.5L952.9 556.1 946 547.8 967.6 544.3C968.7 543.9 969.4 542.8 969.2 541.9 969 540.5 968 539.8 966.8 540.3L943.1 544.5 932.3 531.6 951.2 530.4 937.6 517.3 954 514.5 969.4 532.9C970.2 533.8 971.6 533.6 972.2 533.1 973.2 532.3 973.3 531.2 972.5 530.3L958.4 513.4 969.3 511.5 976.2 519.8C977 520.7 978.1 520.8 979.1 520.1 979.7 519.6 980.1 518.2 979.3 517.3L973.9 510.8 987.5 508.3C988.9 508.2 989.6 507.1 989.1 505.9 988.9 505 988.1 504.1 987 504.6L973.1 506.8 975.8 498.8C976.2 498 975.7 496.8 974.9 496.4 974.1 496.1 973.2 496.3 972.9 496.5 972.6 496.8 972.3 497 972.2 497.6L968.5 507.5 957.8 509.7 965.6 489.1C965.7 487.9 965.2 486.8 964.4 486.4 963.6 486.1 962.7 486.3 962.1 486.8 961.8 487 961.8 487 961.8 487.6L953.2 510.4 936.8 513.2 945.4 496.1 927 501.6 932.7 485.9 956.6 481.5C957.5 481.3 958.4 480.5 958.3 479.1 958.1 478.2 957 477.5 955.8 477.4L934.2 481.5 938.2 471.3 948.6 469.4C949.7 469.5 950.4 468.4 950.2 467 950 466.1 948.9 465.5 947.8 465.4L939.7 466.9 944.3 453.7C945 452.6 944.2 451.7 943.1 451 942.6 451 941.7 451.2 941.4 451.5 941.1 451.7 940.8 452 940.7 452.5L935.9 465.4 930.5 459C929.7 458.1 928.3 458.2 927.7 458.8L927.7 458.8C926.8 459.5 926.7 460.7 927.4 461.6L934.4 469.9 930.3 480 916.5 463.5C915.7 462.5 914.6 462.4 913.7 463.2S912.6 465.1 913.4 466L928.8 484.4 923.2 500.1 912.6 484.4 908.2 502.8 897.4 489.9 905.6 467.3C906 465.9 905.3 465 904.4 464.7 903.6 464.3 902.4 464.8 901.8 465.9L894.3 486.2 887.6 478.2 891.1 468C891.7 467 891.3 465.8 889.9 465.4 889.1 465 887.9 465.5 887.2 466.6L884.5 474.6 875.6 463.8C874.8 462.9 873.7 462.8 872.7 463.6S871.7 465.5 872.5 466.4L881.5 477.1 873.4 478.7C872.8 478.6 872.5 478.9 872.2 479.2 871.6 479.7 871.6 480.2 871.5 480.8 871.7 482.2 872.7 482.9 873.9 482.4L884.6 480.8 891.5 489.1 869.9 492.6C869.6 492.8 869.3 493.1 869 493.3 868.4 493.9 868.3 494.4 868.3 495 868.4 496.4 869.5 497.1 870.7 496.6L894.3 492.5 905.1 505.3 886.3 506.5 899.9 519.6 883.5 522.4 868 504.1C867.3 503.1 865.8 503.3 865.2 503.8 864.3 504.6 864.2 505.7 865 506.6L878.8 523.2 868.1 525.4 861.2 517.1C860.4 516.2 859.3 516.1 858.4 516.8S857.4 518.7 858.1 519.7L863.5 526.1 850 528.6C849.4 528.5 849.1 528.8 848.8 529.1 848.5 529.3 848.1 530.1 848.3 531 848.6 531.9 849.3 532.8 850.5 532.3ZM895.4 509.9L910.8 509 914.4 493.9 923.2 506.9 937.7 502.5 931.1 516.4 942.1 527 926.7 528 923.1 543 914.6 530.3 899.7 534.4 906.6 520.8 895.4 509.9Z" fill="rgba(51, 121, 194, 0.58)"></path><path d="M1205.7 202.2L1198.6 254.7 1187.2 263.8 1157.1 251.4 1154.8 236.6 1187.4 194.6C1187.6 194.1 1187.6 194.1 1187.9 193.5 1188.3 192.3 1188.2 190.9 1186.7 189.5 1184.9 188.8 1183.5 188.9 1182.2 190.4L1153.9 227.2 1150.8 204.5 1163.1 188.1C1163.1 188.1 1163.3 187.5 1163.3 187.5 1163.8 186.3 1163.7 184.9 1162.2 183.6 1161.2 182.5 1159 182.9 1157.6 184.5L1149.2 194.8 1147.1 178.1C1147 176.6 1145.5 175.3 1143.5 175.2S1140.5 177.4 1140.3 179.4L1142.7 195.6 1132.1 187.8C1130.5 186.4 1128.3 186.9 1126.9 188.4 1126.5 189.6 1126.3 191.6 1127.8 192.9L1144.2 205.2 1147.1 228.6 1110.3 200.2C1108.8 198.9 1106.5 199.4 1105.4 200.3 1104.7 202.1 1104.6 204.1 1106.1 205.4L1148.3 237.4 1150.3 252.7 1125 272.1 1110.8 266.2 1090 217.5C1089.3 215.8 1087.6 215.1 1085.9 215.8S1083.5 218.3 1084.2 219.9L1102.5 262.8 1080.6 253.8 1073 235.4C1072.3 233.7 1070.5 233 1068.2 233.4S1065.8 235.9 1066.5 237.6L1072.3 250.4 1056.4 243.8C1054.6 243 1052.7 244.3 1051.9 246.1 1051.2 247.9 1051.9 249.5 1053.7 250.3L1069.6 256.9 1057.1 262.1C1054.8 262.5 1054.1 264.3 1055.4 266.2 1056.1 267.9 1057.9 268.6 1059.5 267.9L1077.9 260.3 1099.8 269.3 1056.6 286.8C1054.9 287.5 1054 289.9 1054.7 291.5S1057.1 293.9 1058.8 293.2L1108.1 272.7 1122.3 278.6 1126.4 310.7 1114.4 319.6 1061.9 312.5C1059.9 312.4 1058.6 313.9 1057.8 315.7 1057.7 317.7 1059.2 319 1061 319.8L1107.1 325.6 1088.8 339.6 1068.6 336.7C1066.5 336.6 1065.2 338.1 1064.5 339.9 1064.6 341.3 1065.9 343.2 1067.9 343.4L1080.9 345.3 1067.6 355.7C1066.6 356.7 1066.4 358.7 1067.1 360.4 1068.6 361.7 1070.7 361.8 1071.7 360.9L1085 350.4 1083.5 364.3C1083.6 365.8 1084.9 367.7 1086.3 367.6 1088.1 368.3 1089.1 367.4 1089.9 365.6 1089.9 365.6 1090.1 365 1090.1 365L1093 344.7 1111.2 330.8 1105.3 376.8C1105.2 378.8 1105.9 380.5 1107.9 380.6 1109.9 380.8 1111 379.8 1111.5 378.7 1111.7 378.1 1111.7 378.1 1111.7 378.1L1118.5 324.8 1130.5 315.9 1160.6 328.3 1162.3 342.8 1130.1 385.6C1129 386.6 1129.4 388.8 1130.4 389.9 1131.9 391.2 1134.2 390.8 1135.5 389.3L1163.8 352.5 1166.9 375.2 1154.6 391.6C1153.3 393.1 1153.2 395.1 1154.9 395.9 1156.5 397.2 1158.7 396.7 1159.8 395.8L1167.9 384.6 1170 401.4C1170.7 403.1 1172.2 404.4 1174.2 404.5 1175 404.2 1176.1 403.2 1176.6 402 1176.9 401.5 1176.9 401.5 1176.5 400.6L1174.4 383.8 1185.6 391.9C1187.2 393.2 1188.8 392.6 1189.9 391.6 1190.2 391 1190.2 391 1190.4 390.4 1190.9 389.2 1190.8 387.8 1189.8 386.7L1173.5 374.4 1170.4 351.7 1207.2 380C1208.9 380.8 1210.9 380.9 1211.7 379.1 1212.5 378.8 1212.5 378.8 1212.8 378.2 1213.2 377 1212.6 375.3 1211.6 374.3L1168.8 342.1 1167.2 327.5 1192.7 307.6 1206.3 313.2 1226.8 362.5C1227.5 364.2 1229.9 365.2 1231.6 364.5S1234.2 361.4 1233.5 359.7L1215.2 316.9 1236.5 325.7 1244.7 344.3C1245.4 346 1247.2 346.7 1248.9 346 1250.5 345.3 1251.3 343.5 1250.6 341.9L1245.4 329.3 1261.3 335.9C1262.5 336.4 1264.8 336 1265.5 334.2 1266.3 332.4 1265.2 329.9 1264 329.4L1248.1 322.8 1260.6 317.6C1261.4 317.3 1262.3 316.9 1262.5 316.3 1263 315.1 1262.6 314.3 1262.3 313.5 1261.6 311.8 1259.8 311.1 1258.2 311.8L1239.2 319.2 1217.9 310.4 1261.1 292.9C1261.9 292.5 1262.2 291.9 1262.7 290.8 1262.9 290.2 1263.1 289.6 1262.8 288.7 1262.1 287.1 1259.7 286.1 1258.1 286.8L1209 306.7 1195.4 301.1 1191.1 269.6 1202.7 259.8 1255.8 267.2C1257.2 267.1 1258.9 266.4 1259.4 265.2 1259.6 264.6 1259.6 264.6 1259 264.3 1259.7 262.6 1258.5 260.7 1256.4 260.5L1210.4 254.7 1228.8 240.1 1249.1 243C1250.6 242.9 1251.6 241.9 1252.1 240.7 1252.1 240.7 1252.4 240.1 1252.4 240.1 1253.1 238.4 1251.8 236.5 1249.8 236.3L1235.9 234.7 1249.2 224.3C1250.1 224 1250.3 223.4 1250.5 222.8 1251 221.6 1250.9 220.2 1250.3 219.9 1249 218 1247 217.9 1245.4 218.6L1232.1 229 1234 215.9C1234.1 213.9 1232.8 212 1230.8 211.9 1229.4 212 1227.5 213.3 1227.6 214.7L1224.7 235 1206.5 248.9 1212.4 202.9C1212.5 200.9 1211 199.5 1209.2 198.8 1207.8 198.9 1205.9 200.2 1205.7 202.2ZM1157.9 259.3L1181 268.9 1184.5 270.3 1185.1 274 1188.3 298.2 1188.6 302.5 1185.6 304.7 1166.3 319.6 1163.3 321.8 1159.8 320.3 1136.7 310.8 1133.1 309.4 1132.6 305.7 1129.4 281.5 1128.8 277.8 1132.1 275 1151.4 260.1 1154.4 257.9 1157.9 259.3Z" fill="rgba(51, 121, 194, 0.58)"></path><path d="M470.8 429.7L502.7 428.6 511.1 436.7 500.3 437C499.1 436.8 498.5 437.8 498.2 439 498.4 439.9 499.4 440.9 500.3 440.7L515.1 440.5 523.5 448.3 512.5 451.4 499.4 444.2C499.4 444.2 499 444.1 499 444.1 498.3 444 497.3 444.5 496.7 445.2 496.4 446.4 496.7 447.3 497.7 447.9L507.2 453.1 496.2 456.2 468.1 441.3C468.1 441.3 467.8 440.8 467.8 440.8 467 440.7 466 441.3 465.4 441.9 464.8 443 465.3 444.4 466.4 444.7L490.9 457.8 477.5 462.1 466.6 456.2C466.6 456.2 466.6 456.2 466.2 456.1 465.4 455.9 464.6 456.1 464 456.8 463.7 458 463.8 459.2 464.9 459.9L472.2 463.7 462.5 466.7C461.2 466.8 460.9 468 461.1 468.9 461.2 470.1 462.3 470.8 463.7 470.3L473.3 467.7 469.3 474.5C469 475.7 469.1 476.9 470.3 477.2 471.3 477.9 472.2 477.7 472.9 476.6L478.7 465.6 492 461.8 478.7 486.6C478.1 487.3 478.7 488.6 479.7 489.3 480.5 489.5 481.8 489.4 482.4 488.3L497.3 460.2 508.3 457 503.2 466.5C502.5 467.6 503.1 468.5 504.2 469.2 504.9 469.8 506.2 469.3 506.8 468.6L513.6 455.4 524.8 451.9 522.1 463.1 509.6 470.9C508.6 471.5 508.3 472.6 508.9 473.6 509.1 474.5 510.7 474.8 511.6 474.2L520.8 468.6 518.1 479.9 490.8 496.4C489.8 497 489.5 498.2 490.1 499.2 490.7 500.1 491.9 500.4 492.9 499.8L516.8 485.3 513.7 498.6 503.1 505.1C502.2 505.7 501.9 506.9 502.5 507.8 503.1 508.8 504.2 509.1 505.2 508.5L512.3 504.4 510 514.1C509.8 515.3 510.3 516.3 511.5 516.5 512.7 516.8 513.6 516.2 513.9 515.1L516.2 505.3 520.4 512.1C521 513 522.1 513.3 523.1 512.7S524.3 510.9 523.8 510L517.5 499.9 520.7 486.3 535.3 509.8C535.9 510.8 537.1 511.1 538 510.5 539 509.9 539.3 508.7 538.7 507.8L522 480.8 524.7 469.5 530.3 478.7C530.9 479.6 532.1 479.9 533.1 479.3 534 478.7 534.3 477.5 533.7 476.6L526 464.1 528.6 453.2 536.6 460.8 537.2 475.8C537.4 476.6 538.4 477.7 539.2 477.5 540.5 477.4 541.1 476.7 541.4 475.5L541 464.7 549.1 472.4 550.2 504.3C550.3 505.6 551 506.1 552.1 506.4 553.4 506.3 554.1 505.2 554.2 504.5L553.5 476.3 563.5 486.1 564 498.1C563.7 499.3 564.8 500 565.9 500.2 566.8 500 567.9 499 567.7 497.8L567.5 489.9 575 496.6C575.6 497.6 576.9 497.5 577.9 496.5 578.5 495.8 578.4 494.5 577.7 494L570.3 486.9 578.6 486.8C579.8 486.7 580.5 485.6 580.3 484.7 580.6 483.5 579.9 483 579.1 482.8 578.7 482.7 578.7 482.7 578.3 482.6L566.3 483 556.3 473.3 584 472.4C585.2 472.7 585.8 471.6 586.1 470.5 585.9 469.6 585.2 469 584.4 468.8 584.1 468.8 584.1 468.8 584.1 468.8L551.9 469.4 543.8 461.7 554.6 461.4C555.8 461.3 556.4 460.6 556.7 459.4 556.5 458.5 555.9 457.6 555.1 457.4 554.7 457.3 554.7 457.3 554.3 457.2L539.4 457.8 531.3 450.1 542 446.9 555.1 453.7C556.2 454.4 557.6 453.9 558.1 453.2 558.4 452 558.3 450.7 557.1 450.5L547.7 445.4 558.4 441.7 586.8 457.1C587.5 457.6 588.9 457.1 589.4 456.5 589.7 455.3 589.6 454 588.5 453.4L564.1 440.2 577.3 436.3 587.9 442.1C589 442.8 590.3 442.3 590.6 441.1 591.2 440.4 591 439.2 590 438.5L582.6 434.7 592.4 431.7C593.3 431.5 593.9 430.4 593.8 429.1 593.5 428.7 592.8 428.1 592.1 427.9 592.1 427.9 591.7 427.8 591.3 427.7L581.5 430.8 585.3 423.4C585.9 422.7 585.4 421.4 584.7 420.8 584.3 420.7 584.3 420.7 584.3 420.7 583.1 420.4 582.2 421 582 421.8L576.2 432.4 562.9 436.6 576.1 411.8C576.4 410.6 576.2 409.8 575.1 409.1 575.1 409.1 574.7 409 574.7 409 574 408.8 573.1 409 572.4 410.1L557.2 438.1 546.5 441.4 551.7 431.9C551.9 430.7 551.8 429.5 550.7 429.2 550.7 428.8 550.4 428.7 550.4 428.7 549.6 428.5 548.6 429.1 548 429.8L541.2 443 530.2 446.2 532.8 435.3 545.3 427.5C546.3 426.9 546.6 425.4 546 424.4 545.3 423.8 544.2 423.6 543.3 423.8L534.1 429.8 536.7 418.5 563.7 401.9C564.7 401.3 564.9 400.1 564.3 399.2 563.7 398.2 562.6 397.9 561.6 398.5L538 413.1 541.2 399.4 551.4 393.2C552.3 392.6 552.6 391.4 552 390.5S550.2 389.2 549.3 389.8L542.5 394 544.8 384.3C545.1 383.1 544.5 382.1 543.4 381.9 542.2 381.6 541.2 382.2 540.9 383.3L538.6 393.1 534.1 386.2C533.8 385.8 533.5 385.3 533.1 385.2 532.7 385.1 531.9 385.3 531.4 385.6 530.4 386.2 530.1 387.4 530.7 388.3L537.4 398.5 534.1 412.2 519.2 388.5C518.9 388 518.6 387.5 518.2 387.4 517.8 387.3 516.9 387.5 516.5 387.8 515.5 388.4 515.2 389.6 515.8 390.6L532.8 417.6 530.2 428.9 524.6 419.4C524.3 418.9 523.5 418.7 523.2 418.6 522.8 418.5 522.4 418.4 521.9 418.7 520.9 419.3 520.6 420.9 521.3 421.4L528.9 434.3 526.3 445.2 517.9 437.5 517.7 422.6C517.5 421.8 516.9 420.8 516.1 420.6 515.7 420.5 515.7 420.5 515.6 420.9 514.5 420.7 513.4 421.6 513.5 422.9L513.8 433.7 505.4 425.9 504.8 393.7C504.6 392.8 503.9 392.3 503.1 392.1 502.7 392 502.7 392 502.7 392 501.5 392.1 500.5 392.7 500.6 394L501.4 422.1 491.4 412.3 490.9 400.3C490.8 399 490.1 398.5 489.3 398.3 489.3 398.3 488.9 398.2 488.9 398.2 487.7 398.3 487 399.4 486.8 400.1L487.3 408.5 480 401.4C479.6 401.3 479.2 401.2 478.8 401.1 478.4 401 477.5 401.2 477 401.5 476.4 402.6 476.1 403.8 477.2 404.4L484.6 411.5 476.3 411.6C475 411.7 474.4 412.8 474.2 413.6 474.3 414.9 475.4 415.5 476.6 415.8L488.6 415.4 498.7 424.7 471 425.6C469.7 425.7 468.6 426.7 468.8 427.5 469 428.8 469.6 429.8 470.8 429.7Z" fill="rgba(51, 121, 194, 0.58)"></path><path d="M405.1 255.7L393.1 271.2 388.2 260.5C387.7 259.3 386.1 258.6 384.4 258.9 383.1 259.9 382.4 261.5 383.4 262.8L389.1 276.4 380.3 288.9 368.4 260.5C367.4 259.2 365.8 258.5 364.7 258.9 362.9 259.8 362.1 261.4 363.1 262.6L376.3 294.1 362.3 312.7 354.6 287 341.1 310.3 331.8 288.9 352 261.3C352.5 261.4 352.6 260.8 352.7 260.3 352.8 259.2 352.4 258 351.3 257.3 350.3 256.6 348.5 257 347.3 258L329.1 282.9 323.5 268.7 332.2 256.8C332.8 256.3 332.9 255.7 333 255.2 333 254.6 332.6 253.4 331.6 252.7 330.5 252.1 328.8 252.4 328.1 253.5L320.8 262.8 312.7 244.9C312.4 243.2 310.7 243 309 243.3 307.8 243.7 307 245.3 308 247.1L315.5 264.9 303.8 263.6C302.1 263.4 300.8 264.9 300.7 266 300.5 267.7 301.5 268.9 303.1 269.1L318.1 270.9 323.8 285.1 293.8 281.6C292.1 281.4 290.9 282.4 290.7 284 290.5 285.1 291.5 286.9 293.1 287.1L326.5 291.1 335.8 312.4 310 306.6 323.1 329.6 299.7 326.8 286.4 295.9C285.5 294.1 283.9 293.9 282.7 294.4 281.5 294.8 280.8 296.4 281.1 298.1L293.6 326.1 278.6 324.3 272.3 310.6C272 308.9 270.4 308.1 268.6 309.1 267.4 309.5 266.6 311.1 267.5 312.9L271.9 323.5 252.5 321.3C250.8 321.1 249.5 322 249.4 323.7S250.1 326.6 251.8 326.8L271.3 329.1 264.5 338.5C263.2 340 263.6 341.7 264.6 342.4 266.2 343.7 267.9 343.4 268.7 341.8L277.9 329.9 293 331.7 274.3 356C273.6 357.6 273.9 359.3 275 360 276.5 361.3 278.2 360.9 279 359.3L299.1 332.4 322.4 335.1 304.4 354.4 330.9 354.7 316.8 373.4 283.4 369.4C281.8 369.2 280.5 370.8 280.3 371.9 280.1 373.6 281.1 374.8 282.8 375L313.4 378.6 304 391 289 389.3C287.3 389.1 286.1 390.1 285.9 391.7 285.8 392.8 286.7 394.6 288.4 394.8L300 396.2 288.6 411.8C287.3 413.3 287.7 415 289.3 415.8 290.3 416.5 292 416.7 292.7 415.1L304.7 399.6 309.7 410.3C310.1 411.5 311.7 412.2 312.9 411.8 314 411.4 314.7 410.3 314.8 409.8 314.9 409.2 314.9 408.7 314.4 408L308.7 394.4 317.5 381.9 329.4 410.4C330.4 411.6 332 412.4 333.2 411.9 334.3 411.5 335 410.5 335.1 409.3 335.2 408.8 335.2 408.8 334.7 408.2L321.5 376.7 335.5 358.1 343.2 383.8 356.7 360.6 366 382 345.8 409.5C345.2 410.5 345 412.2 346.5 413.5 347.5 414.2 349.3 413.8 350.5 412.8L368.7 387.9 374.3 402.1 365.6 414.1C364.4 415 364.7 416.8 366.3 418.1 367.3 418.8 369 418.4 370.3 417.4L377 408.1 385.1 425.9C385.4 427.7 387.1 427.9 388.8 427.5 389.5 427 390.1 426 390.2 425.4 390.3 424.8 390.3 424.3 389.8 423.7L382.4 405.9 394 407.2C395.7 407.4 397 405.9 397.1 404.8L397.1 404.8C397.3 403.1 396.4 401.9 394.7 401.7L379.7 399.9 374 385.7 404 389.2C405.7 389.4 407 388.5 407.1 386.8S406.4 383.9 404.7 383.7L371.3 379.8 362 358.4 387.8 364.2 374.7 341.3 398.1 344 411.4 374.9C412.3 376.7 414 376.9 415.1 376.5 416.3 376 417.1 374.4 416.7 372.7L404.8 344.8 419.2 346.5 425.5 360.2C425.9 361.9 427.5 362.7 429.3 361.8 430.4 361.3 431.2 359.7 430.8 358L425.9 347.3 445.4 349.6C447 349.8 448.3 348.8 448.5 347.1S447.7 344.2 446 344L426.5 341.7 433.3 332.4C433.9 331.9 434 331.3 434 330.7 434.2 329.6 433.7 329 433.2 328.4 431.6 327.1 429.9 327.4 429.2 329L419.9 340.9 404.9 339.2 423.5 314.9C423.6 314.3 423.6 313.7 423.7 313.2 423.8 312.1 423.3 311.4 422.8 310.8 421.3 309.5 419.6 309.9 418.8 311.5L398.7 338.4 375.4 335.7 393.4 316.4 367 316.1 381 297.5 414.4 301.4C416 301.6 417.3 300 417.5 298.9 417.7 297.3 416.7 296 415 295.8L385 292.3 393.8 279.8 408.8 281.5C410.5 281.7 411.7 280.8 411.9 279.1S411.1 276.2 409.5 276L397.8 274.6 409.2 259C409.8 258.5 409.9 258 409.9 257.4 410 256.9 409.6 255.7 408.5 255 407.5 254.3 405.8 254.1 405.1 255.7ZM381 321.7L366.1 337.4 376.9 356.2 355.5 351.4 344.9 369.9 338.2 349.4 316.8 349.1 331.7 333.4 320.9 314.6 341.8 319.3 353 300.9 359 321.4 381 321.7Z" fill="rgba(51, 121, 194, 0.58)"></path><path d="M831.6 112.2L857.7 107.3 877.2 120.8 855.8 130.9 830.9 121.8C830.9 121.8 830.5 121.7 830.5 121.7 829.9 121.7 829.2 122.3 828.8 122.9 828.4 123.8 829 124.8 830 124.9L851.8 132.8 841.4 137.7 831.7 134.3C831.7 134.3 831.4 134.3 831.4 134.3 830.8 134.3 830.1 134.9 829.7 135.5 829.3 136.4 829.9 137.4 830.8 137.5L837.4 139.9 829.7 143.5C829 143.8 828.6 145 828.9 145.7 829.1 146.7 830.4 146.8 831.1 146.5L838.7 143 836.3 149.5C835.9 150.4 836.4 151.4 837.4 151.5 838.3 151.9 839.3 151.3 839.4 150.4L842.8 140.7 853.1 136.1 845.2 157.9C844.8 158.9 845.4 159.9 846.3 160 847.3 160.3 848.3 159.8 848.3 158.8L857.5 133.9 878.9 123.8 876.9 147.7 856.5 165C855.8 165.5 855.7 166.5 856.3 167.2 856.9 167.9 857.9 168 858.6 167.4L876.5 152.2 875.6 163.6 868 170.1C867.3 170.7 867.2 171.6 867.8 172.3 868.4 173 869.3 173.1 870 172.5L875.2 168.1 874.5 177C874.1 178 875 178.7 875.9 178.8 876.9 178.8 877.6 178.3 877.7 177.3L878.3 169 882.7 174.2C883.3 174.9 884.3 175 885 174.4S885.7 172.8 885.1 172.1L878.7 164.5 879.6 153.1 894.9 171C895.5 171.7 896.4 171.8 897.1 171.2 897.8 170.6 897.9 169.7 897.3 169L880 148.6 882 125 901.4 138.5 906 163.9C906.3 164.9 907.2 165.3 908.2 165.4 909.2 165.1 909.6 164.2 909.6 163.2L905.4 140.4 914.8 147 916.6 157.1C916.8 158.1 917.7 158.4 918.7 158.5 919.7 158.3 920.1 157.4 920.1 156.7L918.8 149.9 925.8 154.6C926.4 155 927.6 155.1 928 154.2 928.4 153.2 928.5 152.3 927.6 151.9L920.6 147.1 927.4 145.8C928.4 145.5 928.8 144.6 928.9 144 928.6 143.3 928 142.6 927.4 142.5 927.4 142.5 927.1 142.5 927.1 142.5L917 144.3 907.6 137.7 930.4 133.5C931.4 133.2 931.8 132.3 931.8 131.7 931.6 131 931 130.3 930.3 130.3 930.3 130.3 930 130.2 930 130.2L903.9 135.2 884.5 121.7 905.9 111.6 930.8 120.7C931.7 121.1 932.7 120.5 932.8 119.6 933.2 118.6 932.7 117.6 931.7 117.5L909.9 109.6 920.2 104.7 929.9 108.1C930.8 108.5 931.9 107.9 931.9 107 932.3 106 931.8 105 930.8 104.9L924.3 102.5 931.9 98.9C932.6 98.7 933 97.4 932.8 96.8 932.5 96.1 931.9 95.7 931.3 95.7 930.9 95.6 930.6 95.6 930.3 95.9L922.6 99.4 925.1 92.9C925.5 92 924.9 91 923.9 90.9 923.9 90.9 923.6 90.9 923.6 90.9 923 90.8 922.3 91.4 921.9 92L918.6 101.7 908.2 106.6 916.1 84.8C916.5 83.9 915.9 82.8 915 82.8 915 82.8 914.7 82.7 914.7 82.7 914 82.7 913.3 83.3 913 83.9L903.8 108.8 882.5 118.9 884.4 95.3 904.8 78.1C905.5 77.5 905.5 76.5 905 75.8 904.4 75.2 903.4 75.1 902.7 75.7L884.8 90.6 885.7 79.1 893.3 72.6C894 72.1 894.1 71.1 893.5 70.4S892 69.6 891.3 70.2L886.1 74.6 886.8 66.3C886.9 65.4 886.3 64.7 885.3 64.6 884.4 64.5 883.7 65.1 883.6 66.1L882.9 74.3 878.5 69.2C878.2 68.8 877.9 68.5 877.3 68.4S876.3 68.7 876 69C875.3 69.5 875.2 70.5 875.8 71.2L882.2 78.8 881.3 90.3 866.1 72.3C865.8 72 865.5 71.6 864.8 71.6 864.5 71.5 863.9 71.8 863.5 72.1 862.8 72.7 862.8 73.6 863.3 74.3L880.6 94.7 878.7 118.3 859.2 104.8 854.3 78.7C854 78.1 853.5 77.4 852.8 77.3 852.8 77.3 852.5 77.3 852.5 77.3 851.5 77.5 851.1 78.5 851.1 79.1L855.3 101.9 845.9 95.4 844.1 85.3C843.9 84.6 843.3 83.9 842.6 83.9 842.6 83.9 842.3 83.8 842.3 83.8 841.3 84.1 840.9 85 840.9 85.7L842.3 92.5 835.3 87.8C834.9 87.7 834.6 87.4 834.3 87.4 833.7 87.3 833 87.6 832.7 88.2 832.3 89.1 832.2 90.1 833.1 90.5L840.1 95.2 833.2 96.6C832.3 96.8 831.9 97.8 831.8 98.4 832.1 99.4 833 99.8 833.6 99.8L843.7 98.1 853.1 104.6 830.3 108.9C829.3 109.1 828.9 110 828.9 110.7 829.8 111.7 830.7 112.4 831.6 112.2Z" fill="rgba(51, 121, 194, 0.58)"></path><path d="M1427.7 534.3L1400.5 507.3 1400.7 493.3 1409.8 502.4C1410.6 503.7 1412.1 503.4 1413.3 502.7 1413.9 501.8 1414 500 1413.1 499.5L1400.7 486.6 1400.6 472.9 1412.4 479.9 1416.9 497.3C1416.9 497.3 1417.1 497.7 1417.1 497.7 1417.6 498.5 1418.9 498.9 1420 498.8 1421.2 498.1 1421.8 497.2 1421.5 495.7L1418.2 483.2 1430 490.3 1440.1 527.1C1440.1 527.1 1440 527.7 1440 527.7 1440.4 528.6 1441.8 528.9 1442.8 528.9 1444.3 528.6 1445.1 527 1444.4 525.8L1435.8 493.6 1450.5 501.7 1454.3 516.1C1454.3 516.1 1454.3 516.1 1454.6 516.6 1455 517.4 1455.9 518 1457 517.9 1458.3 517.2 1459.3 516.1 1459 514.6L1456.2 505.1 1466.9 511.1C1468.1 512.1 1469.3 511.4 1469.9 510.5 1470.9 509.3 1470.6 507.9 1469 507.1L1458.8 500.8 1468.1 498.8C1469.4 498 1470.4 496.9 1469.7 495.7 1469.4 494.2 1468.5 493.6 1467 493.9L1452.6 497.7 1438.3 489.4 1470.9 480.5C1472 480.5 1472.7 478.9 1472.4 477.4 1472 476.6 1470.8 475.6 1469.3 475.9L1432.5 486 1420.7 479 1433.2 475.7C1434.7 475.4 1435 474.1 1434.7 472.6 1434.7 471.5 1433.1 470.7 1432 470.8L1414.9 475.7 1402.7 468.9 1414.7 461.9 1431.8 466.5C1433.1 466.9 1434.3 466.1 1434.7 464.8 1435.3 463.9 1434.3 462.3 1433 461.9L1420.6 458.6 1432.6 451.6 1469.6 461.9C1470.9 462.2 1472.1 461.5 1472.5 460.2 1472.8 458.9 1472.1 457.7 1470.8 457.3L1438.4 448.3 1452.6 440.1 1467 444C1468.3 444.3 1469.6 443.6 1469.9 442.3 1470.3 441 1469.5 439.7 1468.2 439.4L1458.8 436.5 1469.2 430.5C1470.5 429.8 1470.8 428.5 1470.1 427.2 1469.4 426 1468.1 425.6 1466.8 426.4L1456.4 432.4 1458.9 423.2C1459.2 421.9 1458.5 420.6 1457.2 420.3S1454.6 420.6 1454.3 421.9L1450.6 435.7 1436 444.1 1444.7 412C1445 410.7 1444.3 409.4 1443 409.1 1441.7 408.7 1440.4 409.4 1440.1 410.8L1430.2 447.5 1418.2 454.4 1421.5 442C1421.9 440.7 1421.1 439.4 1419.8 439.1 1418.5 438.7 1417.3 439.4 1416.9 440.7L1412.3 457.8 1400.7 464.5 1400.8 451.2 1413.3 438.4C1413.9 437.5 1414 435.7 1413.1 435.2 1412 434.2 1410.9 434.2 1409.7 434.9L1400.6 444.1 1400.6 430.7 1427.6 403.5C1428.6 402.4 1428.5 401.3 1427.8 400.1 1426.7 399.1 1425.2 399.4 1424.4 399.9L1400.4 423.7 1400.7 406.9 1410.8 396.6C1412.1 395.9 1411.8 394.4 1411.1 393.1 1410.2 392.5 1408.4 392.4 1407.4 393.6L1400.7 400.2 1400.4 388.2C1400.8 386.9 1399.7 385.9 1397.9 385.7 1396.9 385.8 1395.9 386.9 1395.9 388L1395.8 400.3 1388.9 393.2C1387.8 392.2 1386.3 392.5 1385.7 393.4 1384.5 394.1 1384.5 395.1 1385 396 1385.2 396.4 1385.2 396.4 1385.5 396.8L1395.8 406.9 1395.5 423.7 1371.9 400.2C1371.2 399 1369.7 399.3 1368.5 400 1367.9 400.9 1367.9 401.9 1368.4 402.8 1368.7 403.2 1368.7 403.2 1368.7 403.2L1395.7 430.8 1395.6 444.2 1386.5 435C1385.3 434 1384.3 434.1 1383 434.8 1382.4 435.7 1382.1 437 1382.6 437.8 1382.8 438.3 1382.8 438.3 1383 438.7L1395.8 451.2 1395.8 464.6 1384.2 458 1379.3 440.8C1379 439.3 1377.4 438.6 1376.4 438.6 1375.1 439.4 1374.1 440.5 1374.8 441.7L1378.2 454.2 1366.2 447.9 1356.2 410.4C1356.1 409.3 1354.6 408.5 1353.5 408.6 1352.3 409.3 1351.2 410.5 1351.5 412L1360.1 444.1 1345.9 435.7 1342.2 421.8C1341.9 420.3 1340.4 419.5 1339.1 420.2 1338.1 420.3 1337.1 421.4 1337.4 422.9L1340.1 432.4 1329.4 426.4C1328.5 425.8 1327 426.1 1326 427.2 1325.8 427.9 1325.9 429 1326.4 429.8 1326.4 429.8 1326.6 430.2 1326.9 430.6L1337.5 436.7 1328 439.4C1327 439.4 1326.2 441 1326.2 442.1 1326.5 442.5 1326.5 442.5 1326.5 442.5 1327.2 443.7 1328.5 444.1 1329.4 443.6L1343.3 440 1358 448.1 1325.4 457C1324.2 457.7 1323.6 458.6 1323.9 460.1 1323.9 460.1 1324.1 460.5 1324.1 460.5 1324.6 461.3 1325.5 461.9 1327 461.6L1364 451.9 1375.6 458.5 1363.1 461.8C1361.9 462.5 1360.9 463.7 1361.6 464.9 1361.2 465.1 1361.4 465.6 1361.4 465.6 1361.9 466.4 1363.2 466.7 1364.3 466.7L1381.4 461.8 1393.2 468.8 1381.6 475.5 1364.5 471C1363.2 470.6 1361.6 471.6 1361.2 472.9 1361.3 474 1362 475.2 1362.9 475.8L1375.8 478.9 1363.7 485.8 1327 476C1325.7 475.6 1324.4 476.4 1324.1 477.7 1323.7 479 1324.4 480.2 1325.8 480.6L1357.9 489.2 1343.3 497.6 1329.6 493.9C1328.2 493.6 1327 494.3 1326.6 495.6S1327 498.1 1328.3 498.5L1337.5 501 1327.1 507C1325.9 507.7 1325.5 509 1326.2 510.2 1327 511.5 1328.3 511.8 1329.5 511.1L1339.9 505.1 1337.7 514.7C1337.5 515.4 1337.3 516 1337.6 516.4 1337.8 516.9 1338.7 517.4 1339.4 517.6 1340.7 518 1341.9 517.3 1342.3 515.9L1345.7 501.8 1360.3 493.4 1351.9 525.9C1351.7 526.6 1351.5 527.2 1351.8 527.6 1352 528 1352.9 528.6 1353.6 528.8 1354.9 529.2 1356.1 528.4 1356.5 527.1L1366.1 490 1378.2 483 1374.4 495.7C1374.2 496.4 1374.7 497.2 1374.9 497.6 1375.2 498.1 1375.4 498.5 1376.1 498.7 1377.4 499 1379.1 498 1379 497L1384 479.7 1395.6 473 1395.8 486.7 1383 499.1C1382.4 500 1382 501.3 1382.5 502.1 1382.8 502.6 1382.8 502.6 1383.2 502.3 1383.9 503.6 1385.6 503.7 1386.6 502.5L1395.8 493.4 1395.9 507.1 1368.3 534.2C1367.7 535.1 1367.8 536.1 1368.3 537 1368.5 537.4 1368.5 537.4 1368.5 537.4 1369.6 538.4 1370.9 538.7 1371.9 537.6L1395.9 513.8 1395.6 530.6 1385.5 540.9C1384.5 542 1384.5 543.1 1385 543.9 1385 543.9 1385.3 544.3 1385.3 544.3 1386.4 545.4 1387.9 545 1388.7 544.6L1395.6 537.3 1395.5 549.5C1395.7 550 1395.9 550.4 1396.2 550.8 1396.4 551.2 1397.3 551.8 1398 552 1399.5 551.7 1400.7 550.9 1400.4 549.5L1400.5 537.2 1407.4 544.3C1408.5 545.3 1410 545 1410.9 544.5 1411.9 543.4 1411.6 541.9 1410.8 540.7L1400.6 530.5 1400.4 514 1424 537.5C1425.1 538.5 1426.8 538.6 1427.4 537.7 1428.4 536.6 1428.8 535.3 1427.7 534.3Z" fill="rgba(51, 121, 194, 0.58)"></path><path d="M1101.5 499.7L1119.8 480.6 1127.1 480.2 1135.6 494.1 1132.2 500.8 1106.7 508.2C1106.4 508.3 1106.4 508.3 1106.2 508.5 1105.6 508.8 1105.2 509.4 1105.5 510.4 1106 511.2 1106.6 511.6 1107.6 511.4L1129.8 504.8 1124.4 514.9 1114.6 518C1114.6 518 1114.3 518.1 1114.3 518.1 1113.8 518.5 1113.4 519.1 1113.6 520 1113.7 520.8 1114.7 521.2 1115.7 521L1122.2 519.3 1118.1 526.7C1117.7 527.3 1117.9 528.3 1118.7 528.9S1120.6 528.9 1121.2 528.1L1125.1 520.9 1127 527.2C1127.3 528.2 1128.3 528.7 1129.3 528.4 1129.8 528.1 1130.5 527.3 1130.3 526.4L1127.3 516.6 1133 506.3 1139.5 528.6C1139.7 529.5 1140.8 530 1141.5 530 1142.3 529.5 1143 528.7 1142.7 527.7L1135.1 502.4 1138.8 495.6 1154.7 495.2 1158.7 501.7 1152.8 527.5C1152.6 528.4 1153.1 529.2 1154 529.5S1155.7 529.2 1155.9 528.3L1161.1 505.6 1167.3 515.7 1164.9 525.3C1164.7 526.2 1165.2 527 1166.3 527.5S1168 527.2 1168.2 526.3L1169.6 519.5 1174.1 526.8C1174.6 527.7 1175.8 527.7 1176.6 527.2 1177.4 526.7 1177.6 525.8 1177.1 525L1172.6 517.6 1179.2 519.2C1180.3 519.7 1181.1 519.2 1181.1 518 1181.3 517.2 1180.8 516.3 1179.9 516.1L1170.3 513.8 1164.1 503.7 1186.7 509.4C1187.6 509.6 1188.7 508.9 1188.9 508S1188.6 506.3 1187.7 506.1L1161.7 499.9 1157.7 493.4 1165.5 479.2 1173 479.1 1192.1 497.4C1192.9 498.1 1193.9 497.8 1194.7 497.3 1195.3 496.5 1195.1 495.6 1194.6 494.7L1177.7 478.8 1189.2 478.6 1196.5 485.7C1197.3 486.3 1198.3 486.1 1199.1 485.6 1199.5 485 1199.5 483.8 1198.8 483.2L1194 478.6 1202.5 478.3C1203.2 478.2 1203.9 477.4 1204.1 476.5 1203.8 475.5 1203.1 474.9 1202.4 475L1193.9 475.3 1198.6 470.1C1199 469.5 1199 468.4 1198.4 468 1197.9 467.2 1197.2 467.2 1196.4 467.7 1196.4 467.7 1196.1 467.9 1196.1 467.9L1189 475.3 1177.6 475.5 1193.5 458.6C1194.1 457.9 1194.3 457 1193.5 456.3 1192.8 455.7 1192.1 455.7 1191.5 456.1 1191.2 456.2 1191.2 456.2 1191.2 456.2L1172.8 475.8 1165.4 475.9 1156.8 462 1160.4 455.6 1186 447.8C1186.8 447.7 1187.2 446.7 1187.2 446 1187 445 1185.9 444.5 1184.9 444.7L1162.6 451.3 1168.1 441.2 1177.9 438.2C1178.9 437.9 1179.5 437.2 1179 436.3 1178.8 435.4 1177.7 434.9 1177 434.9L1170.5 437.1 1174.6 429.7C1174.8 428.8 1174.5 427.8 1173.8 427.2 1173.3 427.1 1172.6 427.1 1172.1 427.5 1171.8 427.6 1171.8 427.6 1171.7 428.1L1167.6 435.5 1165.4 428.9C1165.2 427.9 1164.3 427.7 1163.6 427.8 1163.3 427.9 1163.3 427.9 1163.1 428.1 1162.5 428.4 1162.1 429 1162.2 429.8L1165.2 439.6 1159.8 449.7 1153.2 427.4C1152.7 426.6 1152 425.9 1151.1 426.4 1150.7 426.3 1150.7 426.3 1150.4 426.5 1149.9 426.8 1149.7 427.7 1149.7 428.4L1157.6 454 1154 460.4 1137.8 460.9 1133.9 454.6 1140.1 428.7C1140.3 427.8 1139.7 426.7 1138.8 426.5S1136.8 426.9 1136.6 427.8L1131.4 450.5 1125.4 440.7 1127.5 430.8C1127.7 429.9 1127.2 429.1 1126.4 428.9 1125.5 428.7 1124.7 429.2 1124.5 430L1122.9 436.6 1118.4 429.3C1118 428.7 1117 428.2 1116.2 428.8 1115.3 429.3 1115 430.6 1115.4 431.1L1119.9 438.5 1113.3 436.9C1112.8 436.8 1112.4 436.7 1112.1 436.9 1111.6 437.2 1111.5 437.6 1111.4 438.1 1111.2 439 1111.7 439.8 1112.5 440L1122.4 442.6 1128.4 452.4 1105.8 446.7C1105.4 446.6 1105.1 446.8 1104.5 447.1 1104.3 447.3 1104 447.5 1103.9 447.9 1103.7 448.8 1104.4 449.9 1105.2 450.1L1130.9 456.5 1134.8 462.8 1127.2 476.8 1119.7 477.3 1100.4 458.7C1099.8 458.3 1098.9 458.1 1098.3 458.5 1098.1 458.6 1098.1 458.6 1098.2 458.9 1097.4 459.4 1097.4 460.6 1098.2 461.2L1115.1 477.1 1103.3 477.6 1095.9 470.4C1095.3 470.1 1094.6 470.1 1094.1 470.5 1094.1 470.5 1093.8 470.6 1093.8 470.6 1093 471.1 1092.9 472.3 1093.7 472.9L1098.9 477.7 1090.4 478C1090 477.9 1089.7 478 1089.4 478.2 1088.9 478.5 1088.5 479.1 1088.7 479.4 1088.6 480.6 1089.4 481.2 1090.3 481.4L1098.7 481.1 1094.1 485.8C1093.5 486.6 1093.4 487.8 1094.2 488.4 1094.8 488.8 1096 488.8 1096.3 488.2L1103.5 480.9 1114.9 480.6 1099 497.5C1098.4 498.3 1098.6 499.2 1099.1 500.1 1099.7 500.4 1100.9 500.5 1101.5 499.7ZM1137.6 490.7L1131.1 480 1130.1 478.4 1131 476.7 1136.8 466 1137.9 464.2 1139.8 464.2 1152 463.8 1153.8 463.8 1154.8 465.5 1161.4 476.1 1162.4 477.7 1161.5 479.4 1155.7 490.1 1154.8 491.7 1152.7 491.9 1140.5 492.3 1138.6 492.3 1137.6 490.7Z" fill="rgba(51, 121, 194, 0.58)"></path><path d="M1331.4 155L1341 165.3 1332.8 167.5C1332 167.7 1331.2 168.7 1331.3 170 1331.8 171 1332.9 171.7 1333.9 171.1L1344.2 168.7 1351.9 176.3 1330.5 181.4C1329.5 181.9 1328.8 183 1329 183.9 1329.4 185.2 1330.4 185.9 1331.4 185.4L1355.1 179.7 1366.6 191.8 1347.6 194.2 1362.4 206.4 1346.3 210.5 1329.2 193.1C1329.3 192.7 1328.9 192.6 1328.6 192.5 1327.8 192.3 1326.9 192.4 1326.3 193.1 1325.7 193.7 1325.7 195 1326.3 196L1341.8 211.7 1331.1 214 1323.7 206.5C1323.4 206 1323 205.9 1322.6 205.8 1322.3 205.7 1321.4 205.8 1320.8 206.5 1320.2 207.1 1320.2 208.4 1320.9 209L1326.6 215.2 1313.1 218.8C1311.8 218.9 1311.5 220 1311.5 221.3 1311.7 222.2 1312.7 222.9 1314.1 222.4L1327.5 219.2 1325.2 227.3C1324.8 228.5 1325.8 229.6 1326.5 229.8 1327.7 230.1 1328.7 229.6 1329 228.4L1332 218 1342.7 215.7 1336.7 236.5C1336.4 237.6 1336.9 238.6 1338.1 238.9 1338.8 239.2 1340.2 238.7 1340.5 237.6L1347.2 214.5 1363.3 210.4 1356.2 227.9 1373.9 221.4 1369.3 237.5 1346 243.3C1344.6 243.7 1344.3 244.9 1344.4 245.8 1344.6 246.6 1345.6 247.4 1346.9 247.3L1368.1 241.8 1365.1 252.1 1354.7 255C1353.4 255 1352.7 256.1 1353.1 257.4 1353.3 258.3 1354.3 259 1355.7 258.6L1363.7 256.7 1359.9 270.2C1359.5 271.3 1360.1 272.3 1361.2 272.7S1363.4 272.5 1363.7 271.3L1367.6 257.8 1373.4 263.7C1374.3 264.8 1375.6 264.7 1376.2 264.1 1377.3 263.1 1377.2 261.9 1376.2 261.2L1368.9 253.2 1371.9 242.9 1386.9 258.8C1387.9 259.5 1389.2 259.5 1389.8 258.8 1390.9 257.9 1390.8 256.6 1389.8 255.9L1373.1 238.6 1377.8 222.5 1389.3 237.5 1392.6 218.8 1404.1 230.9 1397.4 254C1397.1 255.1 1398 256.2 1398.8 256.4 1399.9 256.8 1400.9 256.2 1401.3 255.1L1407.4 233.9 1415 242 1412 252.3C1411.7 253.5 1412.3 254.5 1413.4 254.8 1414.2 255 1415.5 254.6 1415.9 253.5L1418.2 245.4 1427.9 255.2C1428.8 256.3 1430.1 256.3 1430.8 255.3 1431.4 254.6 1431.7 253.4 1430.7 252.7L1421.1 242.5 1429.3 240.2C1430.1 240.1 1430.9 239 1430.7 238.2 1430.5 237.3 1429.9 236.7 1429.5 236.6 1429.1 236.5 1428.7 236.3 1428.2 236.6L1417.9 239.1 1410.2 231.4 1431.6 226.4C1432.6 225.8 1433.3 224.8 1433.1 223.9 1433 223 1432.3 222.4 1431.6 222.2 1431.2 222.1 1431.2 222.1 1430.7 222.3L1407 228 1395.5 215.9 1414.5 213.5 1399.7 201.3 1415.8 197.2 1432.9 214.7C1433.6 215.3 1434.7 215.6 1435.8 214.7 1436.4 214 1436.4 212.7 1435.8 211.7L1420.4 196.1 1431 193.7 1438.4 201.3C1439 202.2 1440.2 202.2 1441.3 201.3 1441.9 200.6 1441.9 199.3 1441.3 198.4L1435.5 192.5 1449.1 188.9C1450.3 188.9 1450.7 187.7 1450.6 186.5 1450.3 186 1449.7 185.4 1449.3 185.2 1448.9 185.1 1448.5 185 1448 185.3L1434.6 188.5 1436.9 180.4C1437.3 179.3 1436.3 178.2 1435.6 178L1435.6 178C1434.4 177.6 1433.4 178.2 1433.1 179.3L1430.1 189.7 1419.4 192 1425.4 171.3C1425.7 170.1 1425.2 169.1 1424 168.8S1421.9 169 1421.6 170.2L1414.9 193.2 1398.8 197.3 1405.9 179.8 1388.2 186.4 1392.8 170.2 1416.1 164.4C1417.5 164 1417.9 162.9 1417.7 162 1417.5 161.1 1416.5 160.4 1415.2 160.4L1394.2 165.6 1397 155.6 1407.4 152.8C1408.7 152.7 1409.4 151.7 1409 150.3 1408.8 149.4 1407.8 148.7 1406.5 148.8L1398.4 151 1402.3 137.5C1402.6 136.4 1402 135.4 1400.9 135.1S1398.7 135.3 1398.4 136.4L1394.5 149.9 1388.7 144.1C1388.4 143.6 1388.1 143.4 1387.7 143.3 1386.9 143.1 1386.4 143.4 1385.9 143.7 1384.8 144.6 1384.9 145.9 1385.9 146.6L1393.2 154.5 1390.2 164.9 1375.2 148.9C1374.9 148.8 1374.5 148.7 1374.1 148.6 1373.3 148.4 1372.8 148.6 1372.3 148.9 1371.2 149.8 1371.3 151.1 1372.3 151.8L1389 169.1 1384.3 185.3 1372.8 170.3 1369.6 188.9 1358 176.8 1364.7 153.8C1365 152.6 1364.1 151.5 1363.3 151.3 1362.2 151 1361.2 151.5 1360.8 152.7L1354.9 173.4 1347.1 165.8 1350.1 155.4C1350.4 154.2 1349.9 153.2 1348.7 152.9S1346.6 153.1 1346.2 154.3L1343.9 162.4 1334.3 152.5C1334 152 1333.6 151.9 1333.2 151.8 1332.8 151.7 1331.9 151.8 1331.3 152.5 1330.7 153.1 1330.4 154.3 1331.4 155ZM1375.1 179.7L1384.5 192 1399 186.6 1393.1 201.1 1404.9 210.7 1389.7 213 1387 228.1 1377.6 215.8 1363.2 221.2 1368.9 207 1357.2 197 1372.3 195.1 1375.1 179.7Z" fill="rgba(51, 121, 194, 0.58)"></path><path d="M142.3 583.1L145.1 570.9 151.5 576.4C152.1 577 153.4 577 154.4 576.3 154.9 575.3 154.9 574 154.3 573.4L146 565.9 148.6 554.6 165.3 569.8C166.5 570.7 167.7 570.7 168.2 569.7 169.2 568.9 169.3 567.7 168.1 566.8L149.7 550 151.8 539.7 175 532.2 182.1 538.3 176.1 564.2C176.2 564.6 176.4 565 176.5 565.3 176.6 565.7 177.2 566.4 177.7 566.6 179.1 567 180.2 566.3 180.2 565L185.6 541.4 194 549.2 191.6 561.3C191.2 561.4 191.3 561.8 191.5 562.2 191.7 563 192.3 563.6 193.2 563.7 194.1 563.9 195.1 563.1 195.6 562.1L197.5 552.3 208.2 561.9C208.8 562.5 210 562.5 211.1 561.8 211.6 560.8 211.6 559.5 211 558.8L200.9 549.9 208.9 547.3C210.1 546.9 210.5 545.6 210.2 544.8 209.8 543.7 208.7 542.8 207.6 543.1L197.3 546.4 188.9 538.6 210.2 531.8C211.4 531.4 211.9 530.4 211.5 529.3 211.1 528.1 210.1 527.6 209 528L185.4 535.6 177.9 529.2 183.1 505.2 191.9 502.4 210.8 519.4C211.6 520.4 213.2 520.3 213.8 519.3 214.8 518.5 214.4 517.4 213.7 516.4L196.5 500.9 207.5 497.3 215.9 505.1C216.5 505.8 218.2 505.7 218.8 505S219.4 502.8 218.6 501.7L212.1 495.9 225.4 491.6C226.5 491.2 226.9 489.8 226.6 488.7 226.3 487.9 225.2 487 224.1 487.4L210.7 491.7 212.5 482.7C212.6 481.8 212.2 480.7 210.8 480.3 210 480.2 208.6 481 208.4 481.9L206.2 493.2 195.1 496.7 200 474.1C200 472.9 199.7 471.7 198.3 471.3 197.4 471.2 196 472.1 195.9 472.9L190.6 498.2 181.8 501 163.5 484.6 165.9 475.1 189.5 467.4C190.6 467.1 191.1 466.1 190.8 464.9 190.4 463.8 189.3 462.9 188.1 463.2L166.8 470.1 169.1 458.9 179.3 455.6C180.5 455.2 181 454.2 180.6 453.1 180.3 451.9 179.2 451.4 178.1 451.8L170.1 454.3 173 441.2C173.2 440.3 172.3 438.9 171.4 438.8 170.1 438.8 169 439.2 169 440.4L165.8 454.1 158.7 447.5C157.7 447 156.4 447 155.8 447.6 155.1 448.3 155 449.1 155.2 449.9 155.2 449.9 155.3 450.3 155.8 450.5L164.9 459 162.6 470.2 144.4 454.2C143.7 453.2 142.4 453.2 141.5 454.3 141.3 454.8 141 455.3 141.2 456.1 141.4 456.5 141.5 456.9 141.6 457.2L161.6 474.8 159.4 483.8 136.2 491.3 128.5 484.2 133.6 459.8C134 458.4 133.3 457.4 132 457.4 131 456.9 130 457.6 129.6 459L124.9 481.1 116.2 473.4 118.5 462.6C118.7 461.7 117.9 460.7 116.9 460.2 115.7 460.1 114.5 460.5 114.5 461.8L112.5 470 103.1 461.7C102.4 460.6 101.2 461 100.2 461.8 100 462.3 99.8 463.2 100.1 463.9 100.1 463.9 100.2 464.3 100.3 464.7L110.3 473.6 100.8 476.7C100.1 476.9 99.2 478.1 99.5 479.2 99.9 480.4 101.3 480.7 102.1 480.5L113.9 476.7 122.6 484.4 99.4 491.9C98.3 492.2 97.9 493.6 98.2 494.8S99.6 496.4 100.8 496.1L126.3 487.8 133.4 494.3 128.1 518.3 118.2 521.5 99.2 504.1C98.2 503.6 96.9 503.6 95.9 504.4 95.6 504.9 95.5 505.7 95.7 506.5 95.9 506.9 96 507.3 96.5 507.5L113.7 523 102.6 526.6 93.8 518.9C93.2 518.2 91.9 518.2 90.9 519 90.4 520 90.4 521.2 91 521.9L98 528 85.9 532C85.1 532.2 84.3 533.7 84.6 534.5 84.9 535.6 86.5 536.4 87.2 536.1L99.4 532.2 97.2 540.9C97.3 541.3 97.4 541.7 97.5 542.1 97.8 542.8 98.4 543.5 98.9 543.7 100.2 543.7 101.2 543 101.7 542L104 530.7 115 527.2 110.1 549.8C109.7 551.2 110.5 552.2 111.3 552.3 112.7 552.7 113.8 552 114.3 551L119.6 525.7 129.5 522.5 147.8 538.9 145.8 548.4 120.3 556.6C119.1 556.9 118.6 558 119 559.1 119.4 560.2 120.4 560.8 121.5 560.4L144.7 552.9 142.1 564.3 130.3 568.1C129.5 568.3 128.8 569.8 129.1 571 129.5 572.1 130.9 572.5 131.6 572.2L141.2 569.2 138.3 582.3C138.4 582.7 138.4 582.7 138.5 583.1 138.7 583.8 139.4 584.5 139.9 584.7 141.1 584.7 142.2 584 142.3 583.1ZM134 521L132.2 519.1 132.7 516.9 136.9 497.4 137.5 495.1 139.7 494.4 158.4 488.4 160.7 487.6 162.4 489.2 177.2 502.5 179 504 178.6 506.7 174.2 525.7 173.8 528.4 171.5 529.1 152.9 535.1 150.6 535.9 148.7 534 134 521Z" fill="rgba(51, 121, 194, 0.58)"></path></g><defs><mask id="SvgjsMask1002"><rect width="1440" height="560" fill="#ffffff"></rect></mask><filter id="SvgjsFilter1003"><feGaussianBlur stdDeviation="1"></feGaussianBlur></filter></defs></svg>