<svg xmlns="http://www.w3.org/2000/svg" viewBox="0 0 355.77 518.57"><title>Asset 1</title><g id="Layer_2" data-name="Layer 2"><g id="Layer_1-2" data-name="Layer 1"><path d="M95.76,34.57a45.41,45.41,0,0,1,11.3-2.3,3.46,3.46,0,0,0,3.2-2.4c8.4-19.1,23.2-28.9,43.9-29.8,15.6-.7,29.5,3.7,40.9,14.6a11.31,11.31,0,0,1,2.3,2.6c2,4.1,5.2,4.6,9.4,4.5,11.8-.3,22.8,2.7,32.3,10.2a35.73,35.73,0,0,1,4.1,52.3,66.35,66.35,0,0,1-6.1,5.3c1.6,1,2.9,1.9,4.3,2.8,9,6.2,14.5,15.1,19,24.8,5.8,12.6,9.2,26.1,13.7,39.1a133.15,133.15,0,0,0,7.8,18.8c3.3,6.2,7.4,11.6,13.9,14.7,2,.9,2.7,2.2,2.6,4.6-1.4,22.3-10.1,41.2-25.8,56.9-10.9,10.9-23.7,19-37.7,25.2-4.8,2.1-5.9,5.3-3.2,10.1,2.5,4.5,5.1,8.9,6.2,14,1.5,7.1-1.9,13.4-8.3,15.2a7.46,7.46,0,0,1-2.6.4c-6.1-.5-12.3-.4-18.4-.9-8.6-.8-15.7-5.7-23.1-9.8-2.3-1.3-4.4-2.8-6.6-4.2a2,2,0,0,0-2.8.2c-9.5,8.5-18.5,8.3-27.6-.4a8.65,8.65,0,0,0-1-.7c-2.8,2.2-5.6,4.6-8.5,6.6-5.1,3.6-10.6,4.6-16.4,1.5a13.88,13.88,0,0,1-7.4-12.3,95.27,95.27,0,0,1,.1-10.7c.1-2.2-.7-3.3-2.7-4.1a92.68,92.68,0,0,1-30.7-18.5,80.43,80.43,0,0,1-25.1-42.3,4.6,4.6,0,0,1,.6-4.1c8.4-12.7,11.2-27,12.1-41.9.8-12.7.4-25.6,2.1-38.2.4-3.2,1-6.3,1.6-9.4.4-2,0-3.2-2.2-4-8.6-3.1-13.5-9.3-14.5-18.3-1.1-9.4,1.6-17.8,9.5-23.6a7.12,7.12,0,0,0,3.2-6.5c.1-19.3,9.7-33.7,26.6-40m117.8,79.9c-6.3,6.7-11.5,14.1-17.4,21.8a14.27,14.27,0,0,1-.6-6.6c0-2.2-.7-3.3-2.9-4a80,80,0,0,0-21.1-3.8c-16.7-.6-32.4,3.6-47.4,10.6-7.8,3.6-15.3,7.6-23,11.4-.4.2-.9.3-1.5.6A67.43,67.43,0,0,0,85,127.27c1.1-1.4,2.1-1,3.1-1,5,.2,9.3,2.5,13.4,5.2.8.5,1.5,1.4,2.6.7,4.3-2.7,8.6-5.3,13.1-8.1-2.1-1.5-4.3-1.8-6.5-2.3-7.4-1.7-14.9-4-22,1a3.58,3.58,0,0,1-1.1.4c-1.9.3-2.6,1.5-3.1,3.3-2.3,9.2-2.9,18.6-3.3,27.9-.4,10.3-.6,20.5-1.9,30.7-1.4,11.6-4.2,22.8-10.2,33a5.57,5.57,0,0,0-.5,4.7c6.7,21.4,21.1,35.9,40.9,45.5,1.6.8,2.5.3,3.2-1.2a9.38,9.38,0,0,1,4.2-4.6c6.3-3.5,12.1-2.2,17.7,1.5a48.8,48.8,0,0,0,8,4.6c1.9.8,3.1.5,4.7-.8,8.6-7.1,22.8-7.7,30.8,1.4a4.07,4.07,0,0,0,3.6,1.4c4-.2,7.4-2,10.9-3.8,5.8-3,10.5-7.6,16.1-11,3.3-2,6.7-3.9,10.6-4.6,6.7-1.4,12.2,2.6,13.1,9.3.2,1.4.4,2.8.7,4.2a2.51,2.51,0,0,0,1-.1,5,5,0,0,0,1.3-.5c13.7-6.9,25.9-15.6,35.5-27.6,8.7-10.9,14.3-23.1,15.8-37.1.1-1.3,0-2.1-1.2-2.9-4.8-3-8.1-7.4-11.1-12.1-5.9-9.6-9.4-20.2-12.8-30.7-3.6-11.2-7-22.5-12-33.3-3.4-7.3-7.6-13.9-14.2-18.8-2.2-1.6-4-1.5-6.3-.2-5.9,3.2-10.6,8-15.5,13.1m-112.2-10.6c5.4-3.2,10.8-6.4,16.5-9.8-4.2-3.3-7.9-6.7-8.5-12.1,1.5-.4,2.4.3,3.3.7a41.85,41.85,0,0,0,28.9,2.7c12.1-3.1,22.7-12.7,22.3-27.4,0-1-.4-2.2.8-3,2.3.5,3.4,2.3,4.4,4.2,2.1,4,1.9,8.2,1.3,12.5-.5,3.2-.1,3.9,3.1,4.4,12.7,1.9,23.2-4,28.3-15.8.4-1,.5-2.3,1.9-2.9,1.4.9,1.6,2.4,1.7,3.8.4,4.2.3,8.4-1.8,12.2-1.2,2.2-.8,3.6,1.3,4.7a9.55,9.55,0,0,1,1.6,1.2c7.8,5.3,16.2,6.8,24.6,1.9,12.5-7.3,15.5-25.1,6.3-36.8-7.9-10-18.9-12.8-31-13.2-2.3-.1-3.5.7-4,3.1-.7,3.2-2.2,6.1-5.5,7.8-1.5-1.9-.4-4.1-.9-6a30.27,30.27,0,0,0-12.5-18.3c-10.9-7.6-23.1-9.6-36-7.3a38.57,38.57,0,0,0-31.8,37.6c0,1.1.4,2.4-.9,3.4-2.6-1.1-4.1-3.3-5.2-5.8-1.6-3.7-2-3.9-6-3.1-11.5,2.2-19.1,8.9-23.2,19.7-4.3,11.3-2.7,22.4,1.9,33.3.4.9,1.3,1.8.8,2.9-.8.5-1.5,0-2.2-.3-4.3-1.7-7.2-5.1-9.5-8.9-2.3,1-3,2.9-3.9,4.5-3.6,6.5-1.9,14.7,3.7,18.5,4.3,2.9,5.4,2.6,7.4-2.1.1-.3.3-.5.3-.8.6-2,1.8-2.6,4.1-2.5,6.2.1,12.7,2.5,18.4-3m33.3,11.8c3.2-1.1,6.4-2.3,9.6-3.3,16.6-5.3,33.4-7.3,50.6-3.7,2.2.5,3.6.1,4.5-2.2s2-4.2,3-6.3c1.5-3.1,3-6.2,4.5-9.5a49.87,49.87,0,0,1-10.8-7.3,2,2,0,0,0-2.4-.4c-9.1,4.6-18.5,4.1-27.9,1.1a3.25,3.25,0,0,0-3.6.9,44.41,44.41,0,0,1-21.6,10.6c-3.5.7-7,.8-10.2,2.8-5.7,3.5-11.6,6.6-17.4,10-.7.4-1.7.6-1.6,1.8,4.8,1.8,10,2.6,14.4,5.3,2.9,1.9,5.6,2.2,8.9.2m72.6,184c4.8,2.9,9.5,5.9,15.1,7.4a4.13,4.13,0,0,0,4-.9c3.1-2.6,3.5-3.8,1.9-7.5-2.1-5.2-5.7-9.7-7.1-15.2-.1-.5-.6-1-1.6-.7-1.9,3.3-1.9,7.4-3.8,11.6a23.23,23.23,0,0,1-.2-13.3c1.3-5,3.9-9.5,6.7-13.8,1.5-2.4.7-3.8-.9-5.6s-3.2-1.2-4.9-.3c-3.5,1.8-6.6,4.4-9.8,6.7-1,.7-2.4,1.3-2.6,2.6-.8,3.9-1.3,7.9.2,11.8.8,2.1.7,3.7-1.2,5.1a11.92,11.92,0,0,0-1.8,1.5c-2.3,2.3-2.2,4.9.4,6.9,1.7,1.1,3.5,2.2,5.6,3.7M171.76,288c-1.4-3.7-2.4-4.1-5.8-2.4-1.3.7-2.5,1.5-3.7,2.3-.6.4-1.2,1.1-2,.5,0-5.1,3.6-8.2,9.7-8.2,2.7,0,3.9-1.9,2.5-4.3-1.9-3.2-7.3-5.7-11-5-1.1.2-2.2.4-2.7,1.8s1.2,1.5,1.4,2.5c-1.6,1.3-3.3,2.4-4.8,3.8a11.49,11.49,0,0,0,2.1,18.4c6.7,4.1,13.6-.2,14.3-9.4m-44,3.6c4.4,5.1,6.5,6.1,9.3,2.9a19.2,19.2,0,0,1-2.4,0c-.7-.1-1.6.3-2.2-.6.6-1.4,2.2-1.5,3.3-2.1,2.8-1.5,3.1-4.9.6-6.7-1.4-1.1-3-2.1-2.9-4.1,1.3-.7,2.4,1.1,3.5-.5-.9-1.5-.4-3.2.3-4.7-2-1.3-3.8-2.6-5.7-3.7-2.3-1.3-4.5-.1-6.1,1.2a4.18,4.18,0,0,0-1.2,5.5c2.5,3.8,3.3,8,3.5,12.8m87.4-195.3c0,.2-.1.4-.1.6a.22.22,0,0,0,.2.2,9.62,9.62,0,0,0,4-2.9C216.66,92.57,216.06,94.37,215.16,96.27Z"/><path d="M42.86,353.37a15.52,15.52,0,0,1-8.1,1.6,7.74,7.74,0,0,1-6.6-4.2c-2-3.4-.8-5.6,3-6.3a21.56,21.56,0,0,0,12.4-7c.9-1,1.9-2.2,1.3-3.6s-2.3-1.3-3.6-1.2c-3.9.1-6.7,2.3-9.4,4.6-7.3,6.4-12,14.6-15.9,23.3-2.9,6.5-5.3,13.1-5.3,20.4,0,7,2.8,9.4,9.8,8.5,9.8-1.2,16.5-6.2,19.9-15.8,4.2-11.9,9.6-23.2,15.1-34.6,3.3-6.9,6.8-13.7,10.2-20.6,1.5-2.9,3.4-3.6,6.4-2.2a16.84,16.84,0,0,1,6.6,5.5,7.06,7.06,0,0,1,.3,8.8c-7.4,11.4-14.6,22.8-21.9,34.3a4.59,4.59,0,0,0-.7,1.6c2.9-1.7,4.4-4.8,6.7-7.1,1.6-1.5,3-3.3,4.6-4.8,3-2.7,6.5-2.7,9.8-.2,3.6,2.7,4.4,5.4,2.4,9.3-3.5,6.6-7.3,13-10.8,19.6-.7,1.3-2.4,3.1-.8,4.4,1.4,1.1,3.1-.5,4.4-1.4,5.3-3.9,8.6-9.3,11.1-15.3a34.18,34.18,0,0,1,14.6-16.8c5.5-3.2,11.2-2.9,16.7-.3,6.3,2.9,7.3,9.6,5.3,17.2-.8,2.9-2.2,5.7-3.1,8.8a7.78,7.78,0,0,0,5.3-5.9,29.43,29.43,0,0,1,8.2-14.8,24.94,24.94,0,0,1,19.6-7.2c6.5.4,9.7,4.8,8.2,11.2a31.52,31.52,0,0,1-9.7,16.2c-2.6,2.4-5.2,1.7-6.2-1.7-.9-3.2-.7-6.2,2.1-8.8a69.8,69.8,0,0,0,5.6-6.6c.7-.9,1.6-2,.6-3.1s-2.3-.5-3.5,0a17,17,0,0,0-5.8,5.2c-3.8,4.8-7,10-8.6,16a12.58,12.58,0,0,0-.4,4.3c.1,3.4,2.3,5.6,5.6,4.9,8.4-1.6,14.7-6.1,17.8-14.1,3-7.6,6.9-14.5,13.6-19.5,6.1-4.7,12.7-5.3,19.7-2.2,4,1.8,5.8,5.1,6.1,9.4a25.3,25.3,0,0,1-2.9,13.2c-.5,1.1-1.5,2.1-1.1,3.4a1.16,1.16,0,0,0,1.4-.2c3.2-3.6,6.6-6.6,7-12.3.9-14,5.6-26.6,17.5-35.2,8.1-5.9,17.3-7.1,26.9-4.6,9.3,2.4,12.5,9.7,7.7,18-3.7,6.3-9.1,10.5-17,10.3a7.8,7.8,0,0,1-7.7-5.9c-.6-2.5.4-3.9,2.9-4.3a22.83,22.83,0,0,0,13.1-7c1.1-1.2,2.5-2.6,1.5-4.3s-2.9-1.3-4.5-1.1c-3.7.6-6.6,2.7-9.2,5.2-8.8,8.2-14,18.7-18.1,29.8a33.11,33.11,0,0,0-1.2,4.2c-.5,2.4-.8,4.7-4.3,4.3-1.7-.2-2.3,1.3-1.7,2.9a6.09,6.09,0,0,0,1.8,2.6,9.71,9.71,0,0,1,4,5.5,4.8,4.8,0,0,0,4.2,3.1c10.1,1.3,20.7-5.2,24.3-14.7,7.3-19.6,16.8-38.3,26.1-57a3.89,3.89,0,0,1,5-2.3,14.21,14.21,0,0,1,9.3,8.1c1.1,2.5.5,4.7-.9,6.8-5.9,9.2-11.8,18.4-17.7,27.7-1.8,2.8-3.4,5.6-5,8.5,2.5-1.6,4.1-4.2,6.1-6.3,1.9-1.9,3.6-4,5.7-5.8,3-2.6,6.5-2.3,10,.5,3.1,2.5,3.9,5.5,2,9-3.4,6.2-7,12.3-10.4,18.5-1,1.8-3.3,4.3-1.6,5.6,2,1.6,4.2-1,5.8-2.4,4.3-3.7,7.6-8,9.1-13.8a26.55,26.55,0,0,1,26.6-19.7c8.5.2,12.2,5.7,8.9,13.5s-9.5,12.2-17.9,13.6c-1.1.2-2.3.3-3.5.4-3.8.2-4.7,1.2-4.6,5.3.1,3.1,1.8,4.8,5,4.6,9.3-.4,15.9-5.3,19.4-13.5,6.3-14.5,12.3-29.1,19-43.4,2-4.4,4.1-8.8,6.4-13,2.8-5.1,6.6-5,9.5.1,3.8,6.8,4.2,14.1,2.3,21.4a47.33,47.33,0,0,1-20.5,28.6,11.48,11.48,0,0,0-4.6,6.8c-.5,1.7-.7,3.3.8,4.5a4.39,4.39,0,0,0,4.9.3,12.88,12.88,0,0,0,5.5-4.6,16.41,16.41,0,0,1,1.9-2.5,2.51,2.51,0,0,1,3.4-.5,2.69,2.69,0,0,1,1.2,3.5c-2.6,6.5-13.6,15.5-22.2,9.4-.2-.2-.5-.2-1-.3-2,2.3-2.9,5.2-4.3,7.8a105.21,105.21,0,0,0-7.6,19.8c-.5,1.9-1.4,3.7-3.7,3.3-2.5-.4-3-2.6-2.8-4.7.5-5.6,2.7-10.9,4.3-16.2.3-.9.8-1.8.3-2.7-1.2-.8-2.1.1-3,.4a25.3,25.3,0,0,1-12.8,1.7,13.34,13.34,0,0,1-9.9-6.4c-1.3-2.2-2.5-2.2-4.3-.5-3.2,3.1-6.7,5.9-11.3,6.8-5.3,1.1-8.5-1.2-8.8-6.7-.2-4,.9-7.9,2-11.7.8-2.8,1.8-5.5,2.7-8.3.3-.9.8-1.8-.1-2.8-1.4.5-2.2,1.8-3.1,2.8-7,8.4-14.2,16.6-20.1,25.9a3.08,3.08,0,0,1-5.7-.7c-1.2-3.1-2.7-2.9-5-1.5a28.12,28.12,0,0,1-11.6,3.3c-7.8.6-13.5-3-16.8-10.7-2-4.8-2-4.8-6.4-1.9a16.17,16.17,0,0,1-7.8,2.9,13.89,13.89,0,0,0-7.6,3.1,25.22,25.22,0,0,1-15.4,5.1c-3.8-.1-6.9-1.4-8.6-4.8-1.2-2.5-2.5-2.3-4.5-.8a27.71,27.71,0,0,1-12.1,5.4c-7.1,1.1-12.9-1.3-16.4-7.6-1.2-2.3-2.6-2.9-4.9-1.8a15.6,15.6,0,0,1-7,1.6,5.68,5.68,0,0,0-3.7,1.6,35.14,35.14,0,0,1-7.5,4.4c-8.9,4-14.4,2.7-20-5.1-1.4-.1-2,1-2.8,1.7a20,20,0,0,1-8.2,4.8c-6.5,1.7-10.2-1.5-9.6-8.2.6-6.4,2.9-12.4,4.9-18.5a7,7,0,0,0,.8-3.7c-4.1,3.5-7.2,7.5-10.4,11.5-4.7,5.9-9.6,11.6-13.7,18-1.7,2.6-4.6,2.4-5.8-.6-1.1-2.7-2.3-2.3-4.3-1.3a27.52,27.52,0,0,1-16.9,3.1c-6.5-1-10.1-5.6-12.1-11.3-4-11.4-2.8-22.7,1.3-33.8,3.5-9.5,9.4-17.1,18.9-21.4a31.36,31.36,0,0,1,23.5-1c6.7,2.2,9.4,8.9,6.4,15.3-1.7,4.3-5.1,7.7-9.7,10.1m62.4,21.8c1.6-3.9,3-7.8,2.8-12.1-.1-1.8-.6-3.8-2.7-4.4s-3.6.7-4.6,2.3a14.4,14.4,0,0,0-1.6,14.3c.6,1.6,1.3,3.7,3.1,3.9s1.9-2.3,3-4m69.9,2.9c1.4,1.7,2.5,1.1,3.3-.5,2.2-4.3,4-8.8,3.7-13.8-.1-1.9.1-4.1-2.2-4.8-2.6-.8-4.2.9-5.4,2.9-3,5.4-3.1,10.7.6,16.2m-82.7-5.4c-.2-.9.1-2-1.6-2.3-2.9,4.6-4.7,9.6-3.9,15.2.5,3.2,2.9,4.5,6,3.4a12.19,12.19,0,0,0,4.3-2.4c1.4-1.1,1.7-2.3.3-3.6-2.8-2.7-4.2-6.1-5.1-10.3m216.1-1c2.5-2.2,4.6-4.7,5.1-8.2.4-2.9-1.5-4.5-4-3.2-5.9,3.1-9.3,8.3-12.4,14.4,4.6,1,7.9-.5,11.3-3m-146,16.3c2.9,1.7,6.1,1.2,9.2-1.5,1.4-1.2,1.5-2.3.2-3.6a18.29,18.29,0,0,1-5.1-10.5c-.1-.8-.2-1.6-1.3-1.7-1.5.8-1.9,2.4-2.3,3.8-1.3,4.3-3.4,8.6-.7,13.5M342,357.27c3.3-4.7,6.3-9.6,7-15.5-3.2,5.9-6.3,11.9-9.5,17.8.1.1.2.1.3.2C340.46,359,341.06,358.27,342,357.27Z"/><path d="M184.76,441c5.5-2.6,10.6-1.5,15.7.4,6,2.3,12,4.3,17.9,6.9,8,3.6,16.5,5.8,24.6,9,2,.8,3.1,1.8,3.1,3.9.1,3,.2,6,.1,9s-2.2,4.5-4.6,5.5c-1.9.8-2.4,2-1.8,3.9,1.7,5.2-.5,8.5-4.8,11.4-6.7,4.4-12.4,10.2-18.5,15.4-4.3,3.7-8.5,7.6-12.6,11.6-1.1,1-2,.5-2.9.3-17.3-4.1-34.6-8.3-51.9-12.4-7.2-1.7-14.5-3.4-21.8-5.1-3.8-.9-4.3-1.5-4.5-5.5-.2-3.1-.3-6.2-.6-9.3-.3-2.8.7-4.4,3.5-5a25.68,25.68,0,0,0,4.2-1.4c-1.7-1.6-3.7-1.8-5.4-2.5-1.4-.6-2.2-1.3-2.3-2.9-.3-3.6-.9-7.3-1.2-10.9-.3-2.5,1.1-3.8,3.5-4.5,13.6-3.9,27.1-7.8,40.7-11.9,6.5-1.9,13.2-3.1,19.6-5.9m54.7,32.8c4.7-1.6,6.3-6.8,3.4-11.8a16.8,16.8,0,0,0-.2,5c.2,3.1-.5,5.6-4,7-6.4,2.6-12.7,5.2-19.1,7.8.1.2.2.5.3.7,6.3-3.1,13.1-5,19.6-8.7M225,495.87c3.9-3.2,7.9-6.2,11.6-9.6a5.2,5.2,0,0,0-.3-7.8c-.6.8-.1,1.5.1,2.2.5,2.9.2,5.3-2.5,7.4-3.2,2.5-6.6,4.7-9.6,8a31.75,31.75,0,0,0-6.9,6.3c2.3-2.1,5.2-3.7,7.6-6.5m2.5-41.1-.2-.3a10.93,10.93,0,0,0-1.5-.8c-9.2-3.4-18.6-6.2-27.4-10.3-6-2.8-10.6-.7-15.6,1.5l-.4-.1a13.8,13.8,0,0,0-2,.3c-17.3,5-34.5,10-51.8,15.1-.6.2-1.4.2-1.6,1.2a10.93,10.93,0,0,0,1.5.8c15.4,7,31,13.7,46.3,21,4.5,2.1,8.3,2.4,12.6.2.3-.1.5-.2.8-.3,13.1-5.6,26.2-11.1,39.2-16.8a113.68,113.68,0,0,0,14.1-6.9c-5.1-1.7-9.4-3.8-14-4.6M214.56,487c-7.3,3.2-14.6,6.3-21.9,9.5,3.7,1,7.3,3.3,10.8,1.4,6.6-3.6,12.3-8.5,17.8-13.8-2.1.9-4.2,1.8-6.7,2.9m-59.9,3.4c.7.1,1.4.7,2.5.3-6.7-2.9-13.2-5.6-19.5-8.6-3.2-1.5-5.9-.9-9.2.6,8.8,2.6,17.3,5.1,26.2,7.7m46.9,12.8c-.1-.1-.3-.3-.4-.3a.45.45,0,0,0-.3.4v12.2h.8c0-4,0-8-.1-12.3m-23.9-12c.2,2,.4,4,.6,5.9a31.5,31.5,0,0,0,0-9.2C177.36,489,177.76,489.87,177.66,491.17Z"/><path d="M249.56,410.87c-.2-2,.5-3.1,2.4-2.8s2.6,1.8,1.8,3.5c-.5,1.2-.1,2,.6,3.1,2.1-1.4,4.2-2.7,6.8-2.6a7.47,7.47,0,0,1,6.3,3.6c.9-.9.4-2.3,1.4-3,1.4-1,3.8,0,3.9,1.7.1,2.5.1,5,.1,7.5,0,1.5.5,2.8,2.2,2.9a2.65,2.65,0,0,0,2.7-2.8c.1-2.2,0-4.5.1-6.7.1-2.5,1.9-3.7,3.9-2.4,1.3.8,2,.5,3.1-.1a8.24,8.24,0,0,1,8.8.5c1.2.8,2.2,2.1,1.5,3.4s-2.4.9-3.6.4c-1.4-.6-2.6-1.8-4.3-.5.6,1.6,2.1,1.4,3.1,1.7,4.5,1.3,6.2,3.1,5.7,6s-3.5,4.9-7.6,4.8a8.8,8.8,0,0,1-6.3-3c-6.9,4.2-9.9,4-13.9-1.3-4.1,4.7-8.6,5.4-13.7,1-.4,1.4-.8,2.7-2.6,2.7-2.2.1-2.2-1.8-3.1-3.2-4.4,3.9-8.8,4.6-13.4,0-.6,2.5-1.8,3.9-4.2,2.8-1.6-.7-3,.7-4.5.1-1.9-.7-.6-2.6-1.6-4-1.9,2.2-3.8,4-6.9,4.2s-5.4-1.3-7.4-3.6c-4.1,3.4-8.5,5.4-13.3,1.8-2.3-1.7-3-7.3-1.6-10.7s3.7-4.4,9.5-3.9c.7-.4.6-1.1.8-1.8.2-1.1.3-2.4,2-2.3a2.58,2.58,0,0,1,2.6,2.6c.2,1.1-.2,2.3.5,3.3,7.9-3.4,10.8-2.7,13.9,3.5.7-2.4.4-4.7.4-6.9s1.1-3,3.1-2.3a4.26,4.26,0,0,0,2.5,0c2.8-.7,4.1.6,3.4,3.4-.4,1.3.2,2,1,3a10.74,10.74,0,0,1,4.4-2.5,7.94,7.94,0,0,1,7.1,1.6c1,.8,2.5,1.9,1.6,3.3s-2.7.9-4,.3-2.6-2-4.2-.5-1.4,3.6-.9,5.4,2,2.9,3.8,1.9,3.8-1.2,6.4-1.4c-.2-3.8-.2-7.6-.3-11.7m-44.8,5.9a2.72,2.72,0,0,0-4.1.3c-1.4,1.6-1.3,3.5-.6,5.4a2.72,2.72,0,0,0,2.9,1.9,2.8,2.8,0,0,0,2.5-2,5.09,5.09,0,0,0-.7-5.6m54.3.7a6.68,6.68,0,0,0-.4,5,2.33,2.33,0,0,0,3.1,1.8c1.8-.5,2.7-3.5,1.8-5.7s-2.2-2.8-4.5-1.1m23.6,3a1.08,1.08,0,0,0-.2,1.3c.4.8,7,3.1,7.8,2.8.3-.1.5-.5.9-1.1-2.7-1.5-5.8-1.4-8.5-3m-65.2,3.9c2.5,0,4.3-2.4,7-1.8a16.14,16.14,0,0,0-8.7-.2c-.2,1,.5,1.5,1.7,2m.3-5.9c.7-.1,1.8.2,1.7-1a2,2,0,0,0-3.8,0C215.56,418.67,216.66,418.37,217.76,418.47Z"/><path d="M149.86,412a6.33,6.33,0,0,1,3.3,1.5c1,.9,2.4,1.9,1.4,3.4-.8,1.2-2.3.7-3.5.3-.5-.2-1-.6-1.5-.8-.9-.4-1.8-.5-3.3.6,3,1.7,6.3,1.9,8.7,3.7a2.92,2.92,0,0,1,.9-.2v-9.3c0-1-.4-2.2.9-2.8a2.29,2.29,0,0,1,2.5.2,2.41,2.41,0,0,1,.8,3.1c-.5,1.1-.2,1.8.8,2.6,4.9-3.1,9.7-3.1,14.3,1.2,2.6-2.7,5.7-4,9.4-3a5.7,5.7,0,0,1,4.5,5.7c.1,2.7,0,5.4,0,8.1,0,1.3-.4,2.3-1.9,2.4a2.13,2.13,0,0,1-2.4-2.3c-.1-2.2,0-4.5-.1-6.7,0-1.8-.6-3.5-2.7-3.5s-2.2,1.8-2.3,3.4v6.7c0,1.2-.3,2.2-1.6,2.3-2,.1-2.8,1.2-3.5,2.9-1.3,3-5.3,4.5-9,3.7-2.6-.6-4.6-1.9-4.8-5a5.06,5.06,0,0,1,5.3.2c1.3.8,2.7,1.1,3.4-.7-.6-1-1.4-.8-2.2-.6a5.34,5.34,0,0,1-4.4-1c-.8-.6-1.5-1.1-2.5-.2-2,1.7-3.9,1.1-5.4-1.1-1.9,1.3-3.8,2.5-6.1,2.6-1.6,0-3.4.3-3.4-2.3,0-1.1-1-1-2.2-1.1-2.9-.3-4.5,2-6.9,2.6-3.8.9-6.6-.5-9.1-3.5-4,3.5-8.4,5.6-13.3,2-2.6-1.9-3.2-6.9-1.7-10.6,1.9-4.6,5.7-4.6,9.6-3.8,1.4-1.3-.4-4.3,2.7-4.3,3.8.1,2,3.8,3.4,5.7,4.6-2.4,9.2-3.2,13.1,1.8,2.2-3.4,5.2-4.2,8.8-3.9m-30.7,12.3c2.4.1,3.3-1.3,3.5-3.4.2-1.9,0-3.7-2-4.7a2.33,2.33,0,0,0-3.1.7,5,5,0,0,0-.3,6c.3.6,1,.9,1.9,1.4m46.9-.3c1.5.8,2.6.1,3.4-1.1a5.11,5.11,0,0,0,.2-5.2,2.5,2.5,0,0,0-2.5-1.6,2.37,2.37,0,0,0-2.3,1.8c-.7,2.1-.9,4.1,1.2,6.1m-25.9-1.3c3.6-1.3,6.5,2.9,10.2,1.5-2.2-2.2-5.4-1.9-7.7-3.6-2.9,3.8-7.1-.2-10.3,2,.9,2.3,2.5,2.2,4.1,1.3a5.15,5.15,0,0,1,3.7-1.2m-3.8-5.2c-1.5-2.2-2.8-1.4-4.4.3C133.76,418.67,135.06,418.87,136.36,417.47Z"/><path d="M84.86,428.47c-2.2.2-3.2-.6-3.5-2.7a13.51,13.51,0,0,0-1.4-5.3c-1.3,2-1.4,4-1.8,6a2,2,0,0,1-2.3,2c-1.3,0-2.6.1-3.1-1.5a11.7,11.7,0,0,1-.5-2c-1.1-4-2.1-8-3.2-12,3.9-.9,4.4-.7,5.2,2.6.4,1.6.7,3.2,1.2,5.1,1.4-2.1,1.4-4.3,1.8-6.3a2.37,2.37,0,0,1,2.6-2.2,2.47,2.47,0,0,1,2.9,2.2,32.33,32.33,0,0,0,1.6,5.9c.4-1.6.8-3.3,1.2-4.9.8-3,1.6-3.5,5.3-2.5-1.4,4.9-2.8,9.8-4.2,14.6C86.46,428.07,85.66,428.17,84.86,428.47Z"/><path d="M92.86,414.27c5.6-4.3,12.1-2.2,13.1,4.1.5,2.9-.3,3.7-3.2,3.7-1.8,0-3.7-.1-5.5-.2-.2,0-.5.3-.8.5.3,1.9,1.6,2.3,3.2,1.9a3.1,3.1,0,0,0,1.3-.6c1.5-.9,3.5-1.8,4.4-.2,1,1.8-1,3.1-2.5,4a7.54,7.54,0,0,1-8.5-.2c-2.7-1.9-3.5-4.8-3.3-7.9a8.36,8.36,0,0,1,1.8-5.1m6.6,4.2c.8-.2,1.2-.6.8-1.4a1.78,1.78,0,0,0-1.6-1c-1.1.1-2,.6-2,1.9C97.36,418.77,98.26,418.37,99.46,418.47Z"/><path d="M231.26,112.47c1.8-.3,2,1,2.6,2,3.7,6.2,4.7,13.2,5.5,20.2.4,3.7.9,7.3.4,11-.2,1.2.7,1.7,1.4,2.3,1,.8,2.3,1.4,2.4,3.5a246.48,246.48,0,0,0-29.8-6.9,2.13,2.13,0,0,1,1.3-2.4c3-1.3,3.9-3.9,4.8-6.8C222.36,127.17,225.76,119.37,231.26,112.47Z"/><path d="M225.86,197.47a16.22,16.22,0,0,1,2.3.1c2,.3,4.3.3,5,2.8.6,2.3-1.2,3.7-2.8,4.7-7.4,5-15.4,8-24.5,7-1.6-.2-3.1-.6-3.6-2.4s.5-3,1.7-4.1c4.8-4.1,10.6-6,16.6-7.3C222.16,197.87,223.86,197.77,225.86,197.47Z"/><path d="M133.26,193.57a21.78,21.78,0,0,1,9.8,9.4c1,1.7.6,2.9-.7,4.1s-3.1,1.3-4.1-.2c-6.8-9.4-16.3-8.5-26-6.8-5.3.9-10.2-3.7-9.9-9.4,1.5.1,2.2,1.5,3.4,2,3,1.3,6,.9,9.1.1C121,191.37,127.06,191,133.26,193.57Z"/><path d="M183.66,199.87c.8-8.9,7.4-15.8,16.7-17.9a37,37,0,0,1,5.7-.7c5-.3,10.3.1,13.2-5.4,2.6,3.4-.2,9.6-4.5,11-2.6.9-5.4.5-8,1.2a56.06,56.06,0,0,0-6.7,1.9c-4.7,1.8-8.3,4.6-10.2,9.6C188.46,203.37,186.06,203.47,183.66,199.87Z"/><path d="M108.26,209.27c4,.1,7.6.3,11.1,1.7,1.6.7,3.3,1.6,3.4,3.6s-1.7,3-3.3,3.6c-8.6,2.9-17.3,2.6-25.9,0-1.6-.5-3.1-1.5-3.1-3.4-.1-2.1,1.7-2.9,3.3-3.6C98.26,209.27,103.16,209.27,108.26,209.27Z"/><path d="M171.36,215.57c4.2-.6,7.6-2.6,11.2-4.6.3,4.6-4.2,10.1-9.1,11.3a15.49,15.49,0,0,1-8,.2c-2.6-.7-4.9.4-7.3,1.1-4.2,1.3-8.3,1.8-12.4-.4a5.13,5.13,0,0,1-3.1-4.6c4.3.4,8.6,1.4,12.3-.7a18.39,18.39,0,0,1,13.7-2.3A6.08,6.08,0,0,0,171.36,215.57Z"/><path d="M154.06,203.37c4.8-2.3,9.7-2.5,14.7-2.1,2,.2,2.9,1.4,2.6,3.4-.5,3.9-4.6,7.7-9.3,8.4-3.6.6-7.1-1.4-8.9-5C152.36,206.47,152,204.77,154.06,203.37Z"/><path d="M182.66,444.87a13.72,13.72,0,0,0,3.4-.7c5.4-2.2,10.3-.3,15.2,1.6,1.7.6,2.8,1.6.8,3.5a5.2,5.2,0,0,1-.5.3c-3.4,1.1-6.8,2.1-10.2,3.2-1.3.4-2.4.6-3.7-.5-1.7-1.5-4.1-1.6-6.6-2.2,1.2,1.4,2.9,1.8,3.3,3.4.1.4.2.7.8.6,5.4-.3,9.6,3.2,14.5,4.5,1.6.4,1.3,1.7.1,2.3-4.5,2.1-9,4-13.6,5.9-1,.4-1.9-.2-2.7-.6-3.4-1.7-6.8-3.3-10.7-3.5a2.73,2.73,0,0,1-2.9-2.7,5.23,5.23,0,0,1-5-.8c-2.5-1.6-5.4-2-8.2-2.9-1.1-.3-2.5-.4-2.3-2.1.1-1.4,1.4-1.4,2.4-1.6,4.3-1,8.6-2.2,12.8-3.6,2.5-.9,5.2-.5,7.8.1-.6-4.1,3.1-3,5.2-4.3Z"/><path d="M190.16,469.67c2.2,1.1,4.5,2.2,6.7,3.5,2,1.2,1.9,2.3-.1,3.3-4.6,2.2-9.3,4.2-14,6.3a1.88,1.88,0,0,1-1.9.2c-3.4-2.6-7.7-3.1-11.4-4.7-.7-.3-1.5-.5-1.6-1.4s.7-1.4,1.3-1.7c4.5-2.1,8.9-4.1,13.4-6.1,1.9-.8,3.8.3,6.1.3A13,13,0,0,1,190.16,469.67Z"/><path d="M161.36,461.57c4.1-1.6,7.5.9,11,2.2a40.25,40.25,0,0,1,5.4,2.9c.6.3,1.3.6,1.3,1.4s-.6,1.2-1.3,1.4a114.91,114.91,0,0,0-12.5,5.4,1.8,1.8,0,0,1-2.2,0c-3.6-2.8-8.1-3.1-12.2-4.3-1.2-.3-2.8-.2-3-1.8s1.5-1.7,2.6-2.2c.8-.4,1.6-.8,2.7-1.4C156,463.77,158.86,463.27,161.36,461.57Z"/><path d="M190.36,469.77c-.6-.2-1-.3-1.5-.5-.9-1.3-.5-2.2.9-2.7,4.1-1.7,8.2-3.5,12.2-5.3,1.5-.6,2.8-.1,4.2.3a39.36,39.36,0,0,1,11.5,4.5c1.4.9,2.5,1.9.3,3.1a85.42,85.42,0,0,1-13.8,5.3c-1.1.3-2.1-.3-3.1-.6C197.66,472.57,194.36,470.57,190.36,469.77Z"/><path d="M161.36,461.37c-2.5,1.9-5.5,2.4-8.3,3.8a4.54,4.54,0,0,0-.8.2c-5.4,3.5-10.3,1.5-15.3-1.2a31.6,31.6,0,0,0-4.3-1.6c-.6-.2-1.1-.3-1.3-1a1.3,1.3,0,0,1,1-1.6c9.1-2.9,18-7.9,27.5-1.1C160.86,459.57,162.06,459.77,161.36,461.37Z"/><path d="M227.46,454.67c3.1,2.1,6.9,2.9,9.9,5.1-.5,1.6-1.8,1.7-2.8,2.2-3.4,1.5-6.6,3.6-10.2,4.1s-6.6-2.7-10.3-3.3c-1.5-.2-3.9-.2-4-2.2s2.3-2,3.7-2.6c2.6-1.2,5.4-2,8.1-3.1a8,8,0,0,1,5.3-.3C227.46,454.77,227.46,454.77,227.46,454.67Z"/><path d="M202,449.37c6.3-3.1,10.9,1.9,16.2,3.1,1.6.4,1.8,1.9.1,2.7-3.8,1.9-7.7,3.8-11.9,4.5-2.5.4-4.8-1.2-7.1-2-2.5-.8-5.2-1.2-7.7-3.3,3-2.7,6.7-2.9,9.9-4.7C201.56,449.57,201.86,449.47,202,449.37Z"/></g></g></svg>